<svg xmlns="http://www.w3.org/2000/svg" xmlns:xlink="http://www.w3.org/1999/xlink" width="500" zoomAndPan="magnify" viewBox="0 0 375 374.999991" height="500" preserveAspectRatio="xMidYMid meet" version="1.0"><defs><g/><clipPath id="08062f901b"><path d="M 53 46.632812 L 322 46.632812 L 322 328.632812 L 53 328.632812 Z M 53 46.632812 " clip-rule="nonzero"/></clipPath><clipPath id="aedd0179cc"><rect x="0" width="42" y="0" height="16"/></clipPath><clipPath id="cd8faaa250"><rect x="0" width="42" y="0" height="16"/></clipPath></defs><rect x="-37.5" width="450" fill="#ffffff" y="-37.499999" height="449.999989" fill-opacity="1"/><rect x="-37.5" width="450" fill="#fff6e9" y="-37.499999" height="449.999989" fill-opacity="1"/><g clip-path="url(#08062f901b)"><path fill="#ffc443" d="M 184.835938 58.109375 C 184.695312 57.625 184.695312 57.140625 184.835938 56.65625 L 187.460938 46.632812 L 190.160156 56.65625 C 190.574219 58.109375 189.675781 59.628906 188.222656 60.042969 C 188.222656 70.96875 188.222656 81.960938 188.222656 92.882812 C 188.984375 93.160156 189.46875 93.921875 189.46875 94.75 C 189.46875 95.859375 188.566406 96.757812 187.460938 96.757812 C 186.355469 96.757812 185.457031 95.859375 185.457031 94.75 C 185.457031 93.921875 186.011719 93.160156 186.703125 92.882812 C 186.703125 81.960938 186.703125 70.96875 186.703125 60.042969 C 185.804688 59.769531 185.042969 59.078125 184.835938 58.109375 Z M 172.875 106.851562 C 180.6875 106.089844 185.804688 98 184.488281 90.535156 C 184.144531 88.738281 183.453125 86.800781 182.347656 85.28125 C 184.628906 83.207031 186.078125 80.371094 186.425781 77.328125 C 186.703125 74.703125 186.148438 71.3125 183.453125 70.070312 C 182.277344 69.515625 180.617188 69.308594 179.375 69.863281 C 178.128906 70.484375 177.300781 71.796875 177.160156 73.179688 C 177.023438 74.5625 177.507812 76.015625 178.542969 76.984375 C 179.441406 77.882812 181.03125 78.503906 182.136719 77.535156 C 183.039062 76.707031 182.828125 75.046875 181.445312 74.910156 C 180.546875 74.839844 179.996094 75.53125 179.996094 76.222656 C 179.925781 76.152344 179.855469 76.152344 179.855469 76.085938 C 179.441406 75.738281 179.097656 75.253906 178.890625 74.769531 C 178.542969 73.871094 178.683594 72.765625 179.304688 71.9375 C 180.0625 70.898438 181.308594 70.898438 182.484375 71.246094 C 183.519531 71.589844 184.210938 72.28125 184.628906 73.320312 C 186.078125 77.050781 184.28125 81.546875 181.515625 84.105469 C 180.6875 83.273438 179.648438 82.582031 178.472656 82.308594 C 176.746094 81.824219 174.324219 81.824219 172.804688 82.859375 C 171.421875 83.757812 170.660156 85.417969 170.800781 87.078125 C 170.9375 88.738281 172.042969 90.328125 173.703125 90.949219 C 175.15625 91.5 176.953125 91.085938 177.574219 89.496094 C 178.058594 88.253906 177.230469 85.972656 175.5 86.664062 C 174.808594 86.9375 174.394531 87.699219 174.742188 88.460938 C 174.949219 89.011719 175.5 89.152344 176.054688 89.21875 C 175.707031 89.703125 175.15625 89.773438 174.601562 89.703125 C 173.289062 89.429688 172.390625 88.113281 172.320312 86.871094 C 172.113281 83.757812 175.777344 83.136719 178.058594 83.757812 C 180.132812 84.3125 181.515625 86.246094 182.347656 88.113281 C 183.3125 90.394531 183.660156 93.023438 183.175781 95.441406 C 182.347656 99.730469 179.234375 103.53125 175.085938 104.914062 C 172.875 105.605469 170.453125 105.605469 168.378906 104.570312 C 166.515625 103.601562 164.992188 101.871094 164.648438 99.730469 C 164.371094 97.65625 165.40625 95.441406 167.621094 94.957031 C 168.726562 94.683594 169.761719 95.097656 170.523438 95.859375 C 170.871094 96.203125 171.214844 96.617188 171.421875 97.101562 C 171.492188 97.242188 171.5625 97.378906 171.628906 97.515625 C 171.214844 97.242188 170.59375 97.378906 170.179688 97.792969 C 169.625 98.484375 169.902344 99.453125 170.660156 99.867188 C 171.351562 100.28125 172.253906 100.003906 172.734375 99.382812 C 173.980469 97.863281 172.527344 95.511719 171.285156 94.476562 C 169.902344 93.300781 168.105469 93.09375 166.445312 93.785156 C 162.988281 95.234375 162.367188 99.589844 164.09375 102.632812 C 165.683594 105.675781 169.417969 107.195312 172.875 106.851562 Z M 111.273438 139.898438 C 111.6875 140.3125 112.3125 140.449219 112.863281 140.105469 C 113.417969 139.691406 113.417969 139 113.277344 138.375 C 112.863281 137.0625 111.550781 136.300781 110.238281 136.371094 C 108.855469 136.441406 107.472656 137.199219 106.640625 138.238281 C 104.980469 140.449219 106.574219 144.046875 108.921875 145.152344 C 111.410156 146.328125 114.730469 145.703125 116.597656 143.769531 C 119.015625 141.28125 118.808594 137.546875 118.53125 134.296875 C 118.53125 134.226562 118.53125 134.160156 118.464844 134.089844 C 121.644531 133.882812 124.617188 132.363281 126.414062 129.527344 C 129.042969 125.308594 127.175781 118.671875 121.78125 117.910156 C 119.5 117.566406 116.941406 118.328125 115.558594 120.261719 C 114.109375 122.269531 114.039062 125.449219 116.042969 127.175781 C 117.703125 128.628906 121.230469 128.90625 122.265625 126.484375 C 122.679688 125.515625 122.128906 124.132812 121.023438 124.066406 C 119.984375 123.925781 118.949219 125.242188 119.640625 126.140625 C 119.914062 126.484375 120.261719 126.625 120.605469 126.554688 C 120.46875 126.691406 120.261719 126.761719 120.125 126.832031 C 119.5 127.105469 118.808594 127.039062 118.1875 126.832031 C 116.875 126.414062 116.113281 125.242188 116.042969 123.925781 C 115.835938 121.160156 118.1875 119.292969 120.746094 119.226562 C 123.304688 119.15625 125.378906 120.816406 126.136719 123.234375 C 126.96875 125.792969 126.136719 128.558594 124.203125 130.425781 C 120.125 134.367188 113.347656 133.398438 109.890625 129.179688 C 106.296875 124.824219 107.195312 118.121094 111.6875 114.730469 C 116.183594 111.273438 122.613281 111 128.003906 111.136719 C 131.324219 111.207031 134.640625 111.691406 137.960938 112.242188 C 137.960938 112.3125 137.960938 112.3125 138.03125 112.382812 C 139.273438 114.664062 139.6875 117.84375 137.683594 119.847656 C 136.855469 120.675781 135.539062 121.160156 134.296875 120.886719 C 133.257812 120.609375 132.292969 119.710938 132.152344 118.671875 C 132.152344 118.464844 132.082031 118.257812 132.152344 117.980469 C 132.5 118.742188 133.605469 118.949219 134.15625 118.257812 C 134.78125 117.496094 134.433594 116.390625 133.535156 115.976562 C 132.636719 115.5625 131.667969 115.90625 131.183594 116.667969 C 130.632812 117.496094 130.632812 118.535156 130.910156 119.433594 C 131.53125 121.300781 133.464844 122.476562 135.332031 122.335938 C 137.40625 122.199219 139.136719 120.746094 139.894531 118.878906 C 140.726562 116.804688 140.449219 114.59375 139.550781 112.589844 C 142.316406 113.003906 145.082031 113.347656 147.917969 113.210938 C 151.027344 113.074219 154.347656 112.382812 157.179688 110.929688 C 159.667969 109.683594 161.464844 107.472656 162.367188 104.777344 C 164.023438 99.589844 161.328125 93.367188 155.660156 92.402344 C 153.171875 91.984375 150.679688 92.816406 149.023438 94.683594 C 147.363281 96.550781 146.671875 99.246094 147.707031 101.527344 C 148.675781 103.808594 151.511719 105.398438 153.863281 104.015625 C 154.761719 103.460938 155.3125 102.289062 154.621094 101.386719 C 154.070312 100.628906 152.824219 100.628906 152.480469 101.597656 C 152.273438 102.148438 152.480469 102.703125 152.894531 103.046875 C 152.6875 103.117188 152.410156 103.1875 152.203125 103.1875 C 151.441406 103.253906 150.613281 102.980469 149.988281 102.425781 C 148.816406 101.457031 148.398438 99.730469 148.675781 98.207031 C 149.230469 95.441406 151.996094 93.507812 154.828125 93.644531 C 157.871094 93.851562 160.359375 96.066406 161.191406 98.898438 C 162.089844 101.804688 161.328125 105.191406 159.324219 107.472656 C 157.109375 110.03125 153.445312 111 150.199219 111.480469 C 146.601562 111.964844 143.007812 111.621094 139.414062 111 C 132.773438 109.890625 126.070312 109.0625 119.363281 110.167969 C 114.109375 111.066406 108.785156 113.554688 106.917969 118.949219 C 105.121094 124.273438 107.472656 130.148438 112.378906 132.777344 C 113.902344 133.605469 115.699219 134.019531 117.425781 134.089844 C 117.425781 134.160156 117.359375 134.226562 117.425781 134.367188 C 117.773438 137.824219 117.980469 142.664062 113.902344 144.046875 C 112.3125 144.597656 110.167969 144.53125 108.855469 143.285156 C 108.230469 142.664062 107.886719 141.902344 107.679688 141.074219 C 107.402344 140.105469 107.679688 139.273438 108.4375 138.582031 C 109.128906 137.960938 110.238281 137.476562 111.203125 137.753906 C 111.136719 137.824219 111.066406 137.890625 110.996094 138.03125 C 110.375 138.722656 110.859375 139.484375 111.273438 139.898438 Z M 188.566406 77.328125 C 188.914062 80.371094 190.296875 83.273438 192.648438 85.28125 C 191.542969 86.871094 190.851562 88.738281 190.503906 90.535156 C 189.191406 98 194.304688 106.089844 202.117188 106.851562 C 205.574219 107.195312 209.238281 105.675781 211.039062 102.632812 C 212.835938 99.589844 212.210938 95.304688 208.6875 93.785156 C 207.027344 93.09375 205.230469 93.300781 203.847656 94.476562 C 202.601562 95.511719 201.152344 97.863281 202.394531 99.382812 C 202.878906 100.003906 203.777344 100.28125 204.46875 99.867188 C 205.230469 99.453125 205.507812 98.484375 204.953125 97.792969 C 204.609375 97.308594 203.984375 97.238281 203.5 97.515625 C 203.570312 97.378906 203.640625 97.238281 203.710938 97.101562 C 203.917969 96.617188 204.191406 96.203125 204.609375 95.859375 C 205.367188 95.097656 206.40625 94.75 207.511719 94.957031 C 209.722656 95.441406 210.761719 97.65625 210.484375 99.730469 C 210.207031 101.871094 208.6875 103.601562 206.75 104.570312 C 204.675781 105.605469 202.257812 105.605469 200.042969 104.914062 C 195.898438 103.53125 192.714844 99.730469 191.957031 95.441406 C 191.472656 93.023438 191.816406 90.394531 192.785156 88.113281 C 193.613281 86.246094 194.996094 84.382812 197.070312 83.757812 C 199.421875 83.136719 203.085938 83.757812 202.808594 86.871094 C 202.742188 88.113281 201.773438 89.429688 200.527344 89.703125 C 199.976562 89.84375 199.421875 89.703125 199.078125 89.21875 C 199.628906 89.152344 200.113281 89.011719 200.390625 88.460938 C 200.734375 87.769531 200.320312 86.9375 199.628906 86.664062 C 197.972656 86.039062 197.070312 88.253906 197.554688 89.496094 C 198.179688 91.085938 199.90625 91.5 201.425781 90.949219 C 203.019531 90.328125 204.125 88.738281 204.332031 87.078125 C 204.46875 85.417969 203.710938 83.757812 202.328125 82.859375 C 200.734375 81.824219 198.386719 81.824219 196.65625 82.308594 C 195.480469 82.652344 194.445312 83.273438 193.613281 84.105469 C 190.851562 81.546875 189.050781 76.984375 190.503906 73.320312 C 190.917969 72.351562 191.609375 71.589844 192.648438 71.246094 C 193.753906 70.898438 195.066406 70.898438 195.828125 71.9375 C 196.449219 72.765625 196.589844 73.804688 196.242188 74.769531 C 196.035156 75.253906 195.6875 75.738281 195.273438 76.085938 C 195.207031 76.152344 195.136719 76.152344 195.136719 76.222656 C 195.136719 75.460938 194.582031 74.769531 193.683594 74.910156 C 192.300781 75.046875 192.09375 76.707031 192.992188 77.535156 C 194.097656 78.503906 195.621094 77.882812 196.589844 76.984375 C 197.625 76.015625 198.109375 74.5625 197.972656 73.179688 C 197.832031 71.796875 197.003906 70.484375 195.757812 69.863281 C 194.515625 69.238281 192.921875 69.515625 191.679688 70.070312 C 188.84375 71.3125 188.292969 74.703125 188.566406 77.328125 Z M 218.089844 110.859375 C 220.925781 112.3125 224.171875 112.933594 227.355469 113.140625 C 230.1875 113.28125 232.953125 112.933594 235.71875 112.519531 C 234.820312 114.523438 234.542969 116.738281 235.375 118.8125 C 236.132812 120.675781 237.863281 122.128906 239.9375 122.269531 C 241.871094 122.40625 243.738281 121.230469 244.359375 119.363281 C 244.636719 118.464844 244.636719 117.429688 244.085938 116.597656 C 243.53125 115.839844 242.5625 115.492188 241.734375 115.90625 C 240.90625 116.320312 240.488281 117.429688 241.113281 118.1875 C 241.664062 118.878906 242.839844 118.671875 243.117188 117.910156 C 243.117188 118.121094 243.117188 118.394531 243.117188 118.601562 C 242.910156 119.710938 242.011719 120.609375 240.972656 120.816406 C 239.796875 121.09375 238.484375 120.675781 237.585938 119.777344 C 235.582031 117.773438 235.925781 114.59375 237.238281 112.3125 C 237.238281 112.242188 237.308594 112.242188 237.308594 112.171875 C 240.628906 111.621094 243.878906 111.136719 247.265625 111.066406 C 252.726562 110.929688 259.085938 111.207031 263.582031 114.664062 C 268.003906 118.050781 268.972656 124.757812 265.378906 129.113281 C 261.921875 133.328125 255.078125 134.226562 251.066406 130.355469 C 249.132812 128.488281 248.371094 125.792969 249.132812 123.167969 C 249.890625 120.746094 251.964844 119.15625 254.523438 119.15625 C 257.082031 119.226562 259.433594 121.09375 259.226562 123.859375 C 259.15625 125.171875 258.328125 126.347656 257.082031 126.761719 C 256.460938 126.96875 255.769531 126.96875 255.144531 126.761719 C 255.007812 126.691406 254.800781 126.625 254.664062 126.484375 C 255.007812 126.554688 255.355469 126.414062 255.628906 126.070312 C 256.320312 125.101562 255.285156 123.859375 254.246094 123.996094 C 253.074219 124.132812 252.589844 125.449219 253.003906 126.414062 C 253.972656 128.90625 257.496094 128.558594 259.226562 127.105469 C 261.230469 125.378906 261.160156 122.199219 259.710938 120.195312 C 258.328125 118.257812 255.769531 117.496094 253.488281 117.84375 C 248.164062 118.601562 246.226562 125.242188 248.855469 129.457031 C 250.652344 132.292969 253.625 133.8125 256.804688 134.019531 C 256.804688 134.089844 256.738281 134.160156 256.738281 134.226562 C 256.460938 137.410156 256.253906 141.210938 258.671875 143.699219 C 260.539062 145.636719 263.925781 146.257812 266.347656 145.082031 C 268.628906 143.976562 270.289062 140.382812 268.628906 138.167969 C 267.796875 137.0625 266.347656 136.300781 265.03125 136.300781 C 263.71875 136.234375 262.40625 136.992188 261.992188 138.308594 C 261.785156 138.859375 261.851562 139.621094 262.40625 140.035156 C 262.890625 140.382812 263.511719 140.242188 263.996094 139.828125 C 264.410156 139.414062 264.894531 138.652344 264.617188 138.03125 C 264.550781 137.890625 264.480469 137.824219 264.410156 137.753906 C 265.378906 137.476562 266.484375 137.960938 267.175781 138.582031 C 267.9375 139.207031 268.214844 140.035156 267.9375 141.074219 C 267.730469 141.902344 267.3125 142.664062 266.761719 143.285156 C 265.515625 144.53125 263.375 144.597656 261.714844 144.046875 C 257.636719 142.730469 257.84375 137.824219 258.1875 134.367188 C 258.1875 134.296875 258.1875 134.160156 258.1875 134.089844 C 259.917969 134.019531 261.644531 133.605469 263.234375 132.777344 C 268.144531 130.148438 270.496094 124.273438 268.695312 118.949219 C 266.832031 113.554688 261.507812 111.066406 256.253906 110.167969 C 249.546875 108.992188 242.839844 109.890625 236.203125 111 C 232.609375 111.550781 229.011719 111.964844 225.417969 111.480469 C 222.167969 111 218.503906 110.097656 216.292969 107.472656 C 214.285156 105.121094 213.59375 101.804688 214.425781 98.898438 C 215.253906 96.066406 217.742188 93.785156 220.785156 93.644531 C 223.621094 93.4375 226.316406 95.375 226.9375 98.207031 C 227.214844 99.660156 226.871094 101.457031 225.625 102.425781 C 225.003906 102.910156 224.242188 103.1875 223.414062 103.1875 C 223.207031 103.1875 222.929688 103.117188 222.722656 103.046875 C 223.136719 102.703125 223.34375 102.148438 223.136719 101.597656 C 222.789062 100.628906 221.546875 100.695312 220.992188 101.386719 C 220.234375 102.355469 220.785156 103.53125 221.753906 104.015625 C 224.105469 105.398438 226.9375 103.808594 227.90625 101.527344 C 228.945312 99.175781 228.253906 96.480469 226.59375 94.683594 C 224.933594 92.816406 222.445312 91.984375 219.957031 92.402344 C 214.285156 93.367188 211.519531 99.589844 213.25 104.777344 C 213.804688 107.402344 215.601562 109.617188 218.089844 110.859375 Z M 188.222656 314.949219 C 188.222656 304.027344 188.222656 293.035156 188.222656 282.109375 C 188.984375 281.835938 189.46875 281.074219 189.46875 280.242188 C 189.46875 279.136719 188.566406 278.238281 187.460938 278.238281 C 186.355469 278.238281 185.457031 279.136719 185.457031 280.242188 C 185.457031 281.074219 186.011719 281.835938 186.703125 282.109375 C 186.703125 293.035156 186.703125 304.027344 186.703125 314.949219 C 185.25 315.367188 184.351562 316.886719 184.765625 318.339844 L 187.460938 328.363281 L 190.160156 318.339844 C 190.296875 317.855469 190.296875 317.371094 190.160156 316.886719 C 189.949219 315.917969 189.191406 315.226562 188.222656 314.949219 Z M 202.117188 268.144531 C 194.304688 268.90625 189.191406 276.996094 190.503906 284.460938 C 190.851562 286.257812 191.542969 288.195312 192.648438 289.714844 C 190.367188 291.789062 188.914062 294.625 188.566406 297.667969 C 188.292969 300.292969 188.84375 303.679688 191.542969 304.925781 C 192.714844 305.480469 194.375 305.6875 195.621094 305.132812 C 196.863281 304.511719 197.695312 303.199219 197.832031 301.816406 C 197.972656 300.433594 197.488281 298.980469 196.449219 298.011719 C 195.550781 297.113281 193.960938 296.492188 192.855469 297.460938 C 191.957031 298.289062 192.164062 299.949219 193.546875 300.085938 C 194.445312 300.15625 194.996094 299.464844 194.996094 298.773438 C 195.066406 298.839844 195.136719 298.839844 195.136719 298.910156 C 195.550781 299.257812 195.898438 299.742188 196.105469 300.222656 C 196.449219 301.125 196.3125 302.230469 195.6875 303.058594 C 194.929688 304.097656 193.683594 304.097656 192.507812 303.75 C 191.472656 303.40625 190.78125 302.714844 190.367188 301.675781 C 188.914062 297.941406 190.710938 293.449219 193.476562 290.890625 C 194.304688 291.71875 195.34375 292.410156 196.519531 292.6875 C 198.246094 293.171875 200.667969 293.171875 202.1875 292.136719 C 203.570312 291.238281 204.332031 289.578125 204.191406 287.917969 C 204.054688 286.257812 202.949219 284.667969 201.289062 284.046875 C 199.835938 283.492188 198.039062 283.910156 197.417969 285.5 C 196.933594 286.742188 197.761719 289.023438 199.492188 288.332031 C 200.183594 288.054688 200.597656 287.296875 200.253906 286.535156 C 200.042969 285.980469 199.492188 285.84375 198.9375 285.773438 C 199.285156 285.289062 199.835938 285.222656 200.390625 285.289062 C 201.703125 285.566406 202.601562 286.882812 202.671875 288.125 C 202.878906 291.238281 199.214844 291.859375 196.933594 291.238281 C 194.859375 290.683594 193.476562 288.746094 192.648438 286.882812 C 191.679688 284.601562 191.332031 281.972656 191.816406 279.550781 C 192.648438 275.265625 195.757812 271.464844 199.90625 270.082031 C 202.117188 269.390625 204.539062 269.390625 206.613281 270.425781 C 208.480469 271.394531 210 273.121094 210.347656 275.265625 C 210.621094 277.339844 209.585938 279.550781 207.375 280.035156 C 206.265625 280.3125 205.230469 279.898438 204.46875 279.136719 C 204.125 278.792969 203.777344 278.378906 203.570312 277.894531 C 203.5 277.753906 203.433594 277.617188 203.363281 277.480469 C 203.777344 277.753906 204.402344 277.617188 204.816406 277.203125 C 205.367188 276.511719 205.089844 275.542969 204.332031 275.128906 C 203.640625 274.714844 202.742188 274.988281 202.257812 275.613281 C 201.011719 277.132812 202.464844 279.484375 203.710938 280.519531 C 205.089844 281.695312 206.890625 281.902344 208.546875 281.210938 C 212.003906 279.761719 212.628906 275.40625 210.898438 272.363281 C 209.308594 269.320312 205.574219 267.800781 202.117188 268.144531 Z M 263.71875 235.097656 C 263.304688 234.683594 262.683594 234.546875 262.128906 234.890625 C 261.574219 235.304688 261.574219 235.996094 261.714844 236.617188 C 262.128906 237.933594 263.441406 238.691406 264.757812 238.625 C 266.140625 238.554688 267.523438 237.792969 268.351562 236.757812 C 270.011719 234.546875 268.421875 230.949219 266.070312 229.84375 C 263.582031 228.667969 260.261719 229.289062 258.394531 231.226562 C 255.976562 233.714844 256.183594 237.449219 256.460938 240.699219 C 256.460938 240.765625 256.460938 240.835938 256.527344 240.90625 C 253.347656 241.113281 250.375 242.632812 248.578125 245.46875 C 245.953125 249.6875 247.816406 256.324219 253.210938 257.082031 C 255.492188 257.429688 258.050781 256.667969 259.433594 254.734375 C 260.886719 252.726562 260.953125 249.546875 258.949219 247.820312 C 257.289062 246.367188 253.765625 246.089844 252.726562 248.511719 C 252.3125 249.476562 252.863281 250.859375 253.972656 250.929688 C 255.007812 251.070312 256.046875 249.753906 255.355469 248.855469 C 255.078125 248.511719 254.730469 248.371094 254.386719 248.441406 C 254.523438 248.304688 254.730469 248.234375 254.871094 248.164062 C 255.492188 247.886719 256.183594 247.957031 256.804688 248.164062 C 258.121094 248.578125 258.878906 249.753906 258.949219 251.070312 C 259.15625 253.832031 256.804688 255.699219 254.246094 255.769531 C 251.691406 255.839844 249.617188 254.179688 248.855469 251.761719 C 248.027344 249.203125 248.855469 246.4375 250.789062 244.570312 C 254.871094 240.628906 261.644531 241.597656 265.101562 245.8125 C 268.695312 250.167969 267.796875 256.875 263.304688 260.261719 C 258.8125 263.71875 252.382812 263.996094 246.988281 263.859375 C 243.667969 263.789062 240.351562 263.304688 237.03125 262.753906 C 237.03125 262.683594 237.03125 262.683594 236.964844 262.613281 C 235.71875 260.332031 235.304688 257.152344 237.308594 255.148438 C 238.140625 254.316406 239.453125 253.832031 240.695312 254.109375 C 241.734375 254.386719 242.703125 255.285156 242.839844 256.324219 C 242.839844 256.53125 242.910156 256.738281 242.839844 257.015625 C 242.496094 256.253906 241.386719 256.046875 240.835938 256.738281 C 240.214844 257.5 240.558594 258.605469 241.457031 259.019531 C 242.355469 259.433594 243.324219 259.089844 243.808594 258.328125 C 244.359375 257.5 244.359375 256.460938 244.085938 255.5625 C 243.460938 253.695312 241.527344 252.519531 239.660156 252.660156 C 237.585938 252.796875 235.859375 254.25 235.097656 256.117188 C 234.265625 258.191406 234.542969 260.402344 235.441406 262.40625 C 232.675781 261.992188 229.910156 261.644531 227.078125 261.785156 C 223.964844 261.921875 220.648438 262.613281 217.8125 264.066406 C 215.324219 265.3125 213.527344 267.523438 212.628906 270.21875 C 210.96875 275.40625 213.664062 281.625 219.332031 282.59375 C 221.824219 283.007812 224.3125 282.179688 225.972656 280.3125 C 227.628906 278.445312 228.320312 275.75 227.285156 273.46875 C 226.316406 271.1875 223.480469 269.597656 221.132812 270.980469 C 220.234375 271.53125 219.679688 272.707031 220.371094 273.605469 C 220.925781 274.367188 222.167969 274.367188 222.515625 273.398438 C 222.722656 272.847656 222.515625 272.292969 222.097656 271.949219 C 222.308594 271.878906 222.582031 271.808594 222.789062 271.808594 C 223.550781 271.742188 224.378906 272.015625 225.003906 272.570312 C 226.179688 273.539062 226.59375 275.265625 226.316406 276.789062 C 225.761719 279.550781 223 281.488281 220.164062 281.351562 C 217.121094 281.144531 214.632812 278.929688 213.804688 276.097656 C 212.902344 273.191406 213.664062 269.804688 215.667969 267.523438 C 217.882812 264.964844 221.546875 263.996094 224.796875 263.511719 C 228.390625 263.027344 231.984375 263.375 235.582031 263.996094 C 242.21875 265.101562 248.925781 265.933594 255.628906 264.828125 C 260.886719 263.929688 266.207031 261.4375 268.074219 256.046875 C 269.871094 250.722656 267.523438 244.847656 262.613281 242.21875 C 261.09375 241.390625 259.292969 240.976562 257.566406 240.90625 C 257.566406 240.835938 257.636719 240.765625 257.566406 240.628906 C 257.21875 237.171875 257.011719 232.332031 261.09375 230.949219 C 262.683594 230.398438 264.824219 230.464844 266.140625 231.710938 C 266.761719 232.332031 267.105469 233.09375 267.316406 233.921875 C 267.589844 234.890625 267.316406 235.71875 266.554688 236.410156 C 265.863281 237.035156 264.757812 237.519531 263.789062 237.242188 C 263.859375 237.171875 263.925781 237.101562 263.996094 236.964844 C 264.617188 236.273438 264.132812 235.511719 263.71875 235.097656 Z M 186.425781 297.667969 C 186.078125 294.625 184.695312 291.71875 182.347656 289.714844 C 183.453125 288.125 184.144531 286.257812 184.488281 284.460938 C 185.804688 276.996094 180.6875 268.90625 172.875 268.144531 C 169.417969 267.800781 165.753906 269.320312 163.957031 272.363281 C 162.15625 275.40625 162.78125 279.691406 166.304688 281.210938 C 167.964844 281.902344 169.761719 281.695312 171.144531 280.519531 C 172.390625 279.484375 173.84375 277.132812 172.597656 275.613281 C 172.113281 274.988281 171.214844 274.714844 170.523438 275.128906 C 169.761719 275.542969 169.488281 276.511719 170.039062 277.203125 C 170.386719 277.6875 171.007812 277.753906 171.492188 277.480469 C 171.421875 277.617188 171.351562 277.753906 171.285156 277.894531 C 171.078125 278.378906 170.800781 278.792969 170.386719 279.136719 C 169.625 279.898438 168.585938 280.242188 167.480469 280.035156 C 165.269531 279.550781 164.230469 277.339844 164.507812 275.265625 C 164.785156 273.121094 166.304688 271.394531 168.242188 270.425781 C 170.316406 269.390625 172.734375 269.390625 174.949219 270.082031 C 179.097656 271.464844 182.277344 275.265625 183.039062 279.550781 C 183.519531 281.972656 183.175781 284.597656 182.207031 286.882812 C 181.378906 288.746094 179.996094 290.613281 177.921875 291.238281 C 175.570312 291.859375 171.90625 291.238281 172.183594 288.125 C 172.253906 286.882812 173.21875 285.566406 174.464844 285.289062 C 175.015625 285.152344 175.570312 285.289062 175.917969 285.773438 C 175.363281 285.84375 174.878906 285.980469 174.601562 286.535156 C 174.257812 287.226562 174.671875 288.054688 175.363281 288.332031 C 177.023438 288.957031 177.921875 286.742188 177.4375 285.5 C 176.816406 283.910156 175.085938 283.492188 173.566406 284.046875 C 171.976562 284.667969 170.871094 286.257812 170.660156 287.917969 C 170.523438 289.578125 171.285156 291.238281 172.667969 292.136719 C 174.257812 293.171875 176.609375 293.171875 178.335938 292.6875 C 179.511719 292.34375 180.546875 291.71875 181.378906 290.890625 C 184.144531 293.449219 185.941406 298.011719 184.488281 301.675781 C 184.074219 302.644531 183.382812 303.40625 182.347656 303.75 C 181.238281 304.097656 179.925781 304.097656 179.164062 303.058594 C 178.542969 302.230469 178.40625 301.191406 178.75 300.222656 C 178.957031 299.742188 179.304688 299.257812 179.71875 298.910156 C 179.789062 298.839844 179.855469 298.839844 179.855469 298.773438 C 179.855469 299.53125 180.410156 300.222656 181.308594 300.085938 C 182.691406 299.949219 182.898438 298.289062 182 297.457031 C 180.894531 296.492188 179.375 297.113281 178.40625 298.011719 C 177.367188 298.980469 176.882812 300.433594 177.023438 301.816406 C 177.160156 303.195312 177.992188 304.511719 179.234375 305.132812 C 180.480469 305.753906 182.070312 305.480469 183.3125 304.925781 C 186.148438 303.679688 186.703125 300.292969 186.425781 297.667969 Z M 156.902344 264.136719 C 154.070312 262.683594 150.820312 262.0625 147.640625 261.855469 C 144.804688 261.714844 142.039062 262.0625 139.273438 262.476562 C 140.171875 260.472656 140.449219 258.257812 139.621094 256.183594 C 138.859375 254.316406 137.128906 252.867188 135.058594 252.726562 C 133.121094 252.589844 131.253906 253.765625 130.632812 255.632812 C 130.355469 256.53125 130.355469 257.566406 130.910156 258.398438 C 131.460938 259.15625 132.429688 259.503906 133.257812 259.089844 C 134.089844 258.671875 134.503906 257.566406 133.882812 256.808594 C 133.328125 256.117188 132.152344 256.324219 131.875 257.082031 C 131.875 256.875 131.875 256.597656 131.875 256.390625 C 132.082031 255.285156 132.984375 254.386719 134.019531 254.179688 C 135.195312 253.902344 136.507812 254.316406 137.40625 255.214844 C 139.414062 257.222656 139.066406 260.402344 137.753906 262.683594 C 137.753906 262.753906 137.683594 262.753906 137.683594 262.820312 C 134.367188 263.375 131.117188 263.859375 127.726562 263.929688 C 122.265625 264.066406 115.90625 263.789062 111.410156 260.332031 C 106.988281 256.945312 106.019531 250.238281 109.613281 245.882812 C 113.070312 241.664062 119.914062 240.765625 123.925781 244.640625 C 125.863281 246.503906 126.621094 249.203125 125.863281 251.828125 C 125.101562 254.25 123.027344 255.839844 120.46875 255.839844 C 117.910156 255.769531 115.558594 253.902344 115.769531 251.136719 C 115.835938 249.824219 116.667969 248.648438 117.910156 248.234375 C 118.53125 248.027344 119.222656 248.027344 119.847656 248.234375 C 119.984375 248.304688 120.191406 248.371094 120.332031 248.511719 C 119.984375 248.441406 119.640625 248.578125 119.363281 248.925781 C 118.671875 249.894531 119.707031 251.136719 120.746094 251 C 121.921875 250.859375 122.40625 249.546875 121.988281 248.578125 C 121.023438 246.089844 117.496094 246.4375 115.769531 247.886719 C 113.761719 249.617188 113.832031 252.796875 115.285156 254.800781 C 116.667969 256.738281 119.222656 257.5 121.507812 257.152344 C 126.828125 256.390625 128.765625 249.753906 126.136719 245.539062 C 124.339844 242.703125 121.367188 241.183594 118.1875 240.976562 C 118.1875 240.90625 118.257812 240.835938 118.257812 240.765625 C 118.53125 237.585938 118.742188 233.785156 116.320312 231.296875 C 114.453125 229.359375 111.066406 228.738281 108.648438 229.914062 C 106.363281 231.019531 104.707031 234.613281 106.363281 236.828125 C 107.195312 237.933594 108.648438 238.691406 109.960938 238.691406 C 111.273438 238.761719 112.585938 238 113.003906 236.6875 C 113.210938 236.136719 113.140625 235.375 112.585938 234.960938 C 112.101562 234.613281 111.480469 234.753906 110.996094 235.167969 C 110.582031 235.582031 110.097656 236.34375 110.375 236.964844 C 110.445312 237.101562 110.511719 237.171875 110.582031 237.242188 C 109.613281 237.519531 108.507812 237.035156 107.816406 236.410156 C 107.054688 235.789062 106.78125 234.960938 107.054688 233.921875 C 107.265625 233.09375 107.679688 232.332031 108.230469 231.710938 C 109.476562 230.464844 111.621094 230.398438 113.277344 230.949219 C 117.359375 232.261719 117.152344 237.171875 116.804688 240.628906 C 116.804688 240.699219 116.804688 240.835938 116.804688 240.90625 C 115.078125 240.972656 113.347656 241.390625 111.757812 242.21875 C 106.847656 244.847656 104.5 250.722656 106.296875 256.046875 C 108.164062 261.4375 113.484375 263.929688 118.742188 264.828125 C 125.445312 266 132.152344 265.101562 138.789062 263.996094 C 142.386719 263.445312 145.980469 263.027344 149.574219 263.511719 C 152.824219 263.996094 156.488281 264.894531 158.703125 267.523438 C 160.707031 269.875 161.398438 273.191406 160.566406 276.097656 C 159.738281 278.929688 157.25 281.210938 154.207031 281.351562 C 151.371094 281.558594 148.675781 279.621094 148.054688 276.789062 C 147.777344 275.335938 148.125 273.539062 149.367188 272.570312 C 149.988281 272.085938 150.75 271.808594 151.582031 271.808594 C 151.789062 271.808594 152.0625 271.878906 152.273438 271.949219 C 151.855469 272.292969 151.648438 272.847656 151.855469 273.398438 C 152.203125 274.367188 153.445312 274.296875 154 273.605469 C 154.761719 272.640625 154.207031 271.464844 153.238281 270.980469 C 150.890625 269.597656 148.054688 271.1875 147.085938 273.46875 C 146.050781 275.820312 146.742188 278.515625 148.398438 280.3125 C 150.058594 282.179688 152.546875 283.007812 155.035156 282.59375 C 160.707031 281.625 163.472656 275.40625 161.742188 270.21875 C 161.191406 267.59375 159.394531 265.378906 156.902344 264.136719 Z M 54.652344 163.957031 C 89.21875 163.957031 123.71875 163.957031 158.285156 163.957031 C 192.855469 163.957031 227.355469 163.957031 261.921875 163.957031 C 281.417969 163.957031 300.914062 163.957031 320.34375 163.957031 C 322.140625 163.957031 322.140625 161.191406 320.34375 161.191406 C 285.773438 161.191406 251.273438 161.191406 216.707031 161.191406 C 182.136719 161.191406 147.640625 161.191406 113.070312 161.191406 C 93.574219 161.191406 74.078125 161.191406 54.652344 161.191406 C 52.921875 161.191406 52.855469 163.957031 54.652344 163.957031 Z M 320.34375 210.207031 C 285.773438 210.207031 251.273438 210.207031 216.707031 210.207031 C 182.136719 210.207031 147.640625 210.207031 113.070312 210.207031 C 93.574219 210.207031 74.078125 210.207031 54.652344 210.207031 C 52.855469 210.207031 52.855469 212.972656 54.652344 212.972656 C 89.21875 212.972656 123.71875 212.972656 158.285156 212.972656 C 192.855469 212.972656 227.355469 212.972656 261.921875 212.972656 C 281.417969 212.972656 300.914062 212.972656 320.34375 212.972656 C 322.140625 212.972656 322.140625 210.207031 320.34375 210.207031 Z M 232.882812 149.160156 C 224.171875 135.816406 207.097656 126.691406 187.460938 126.691406 C 167.828125 126.691406 150.820312 135.816406 142.109375 149.160156 L 143.492188 149.160156 C 152.132812 136.441406 168.585938 127.867188 187.460938 127.867188 C 206.335938 127.867188 222.859375 136.441406 231.433594 149.160156 Z M 256.460938 149.160156 L 258.949219 149.160156 C 248.855469 124.550781 220.648438 106.78125 187.53125 106.78125 C 154.414062 106.78125 126.207031 124.550781 116.042969 149.09375 L 118.53125 149.09375 C 128.628906 125.792969 155.726562 109.0625 187.53125 109.0625 C 219.332031 109.0625 246.367188 125.863281 256.460938 149.160156 Z M 98 152.480469 C 121.367188 152.480469 144.734375 152.480469 168.035156 152.480469 C 191.265625 152.480469 214.496094 152.480469 237.722656 152.480469 C 250.859375 152.480469 263.925781 152.480469 277.0625 152.480469 C 277.824219 152.480469 277.824219 151.304688 277.0625 151.304688 C 253.695312 151.304688 230.328125 151.304688 207.027344 151.304688 C 183.796875 151.304688 160.566406 151.304688 137.339844 151.304688 C 124.203125 151.304688 111.136719 151.304688 98 151.304688 C 97.238281 151.304688 97.238281 152.480469 98 152.480469 Z M 142.109375 225.832031 C 150.820312 239.175781 167.894531 248.304688 187.53125 248.304688 C 207.164062 248.304688 224.242188 239.175781 232.953125 225.832031 L 231.570312 225.832031 C 222.929688 238.554688 206.472656 247.128906 187.601562 247.128906 C 168.726562 247.128906 152.203125 238.554688 143.628906 225.832031 Z M 118.53125 225.832031 L 116.042969 225.832031 C 126.207031 250.445312 154.414062 268.144531 187.53125 268.144531 C 220.648438 268.144531 248.855469 250.378906 259.019531 225.832031 L 256.527344 225.832031 C 246.433594 249.132812 219.332031 265.863281 187.53125 265.863281 C 155.726562 265.863281 128.628906 249.132812 118.53125 225.832031 Z M 280.796875 222.515625 C 257.429688 222.515625 234.058594 222.515625 210.761719 222.515625 C 187.53125 222.515625 164.300781 222.515625 141.070312 222.515625 C 127.9375 222.515625 114.867188 222.515625 101.734375 222.515625 C 100.972656 222.515625 100.972656 223.691406 101.734375 223.691406 C 125.101562 223.691406 148.46875 223.691406 171.769531 223.691406 C 194.996094 223.691406 218.226562 223.691406 241.457031 223.691406 C 254.59375 223.691406 267.660156 223.691406 280.796875 223.691406 C 281.554688 223.691406 281.554688 222.515625 280.796875 222.515625 Z M 167.066406 149.507812 L 167.066406 133.746094 C 166.929688 133.8125 166.789062 133.882812 166.652344 133.882812 L 166.652344 149.507812 Z M 174.949219 149.507812 L 174.949219 131.1875 C 174.808594 131.1875 174.671875 131.253906 174.535156 131.253906 L 174.535156 149.4375 L 174.949219 149.4375 Z M 169.070312 149.507812 L 169.070312 132.914062 C 168.933594 132.984375 168.796875 132.984375 168.65625 133.054688 L 168.65625 149.4375 L 169.070312 149.4375 Z M 171.007812 149.507812 L 171.007812 132.292969 C 170.871094 132.363281 170.730469 132.363281 170.59375 132.429688 L 170.59375 149.507812 Z M 186.703125 149.507812 L 186.703125 129.734375 C 186.5625 129.734375 186.425781 129.734375 186.285156 129.734375 L 186.285156 149.507812 Z M 176.882812 149.507812 L 176.882812 130.769531 C 176.746094 130.769531 176.609375 130.839844 176.46875 130.839844 L 176.46875 149.507812 Z M 184.765625 149.507812 L 184.765625 129.804688 C 184.628906 129.804688 184.488281 129.804688 184.351562 129.804688 L 184.351562 149.507812 Z M 182.761719 149.507812 L 182.761719 129.941406 C 182.621094 129.941406 182.484375 129.941406 182.347656 130.011719 L 182.347656 149.507812 Z M 180.824219 149.507812 L 180.824219 130.148438 C 180.6875 130.148438 180.546875 130.21875 180.410156 130.21875 L 180.410156 149.507812 Z M 178.890625 149.507812 L 178.890625 130.425781 C 178.75 130.425781 178.613281 130.496094 178.472656 130.496094 L 178.472656 149.507812 Z M 172.945312 149.507812 L 172.945312 131.738281 C 172.804688 131.808594 172.667969 131.808594 172.527344 131.878906 L 172.527344 149.578125 L 172.945312 149.578125 Z M 153.378906 149.507812 L 153.378906 141.832031 C 153.238281 141.972656 153.101562 142.039062 152.964844 142.179688 L 152.964844 149.507812 Z M 151.371094 149.507812 L 151.371094 143.492188 C 151.234375 143.628906 151.097656 143.769531 150.957031 143.839844 L 150.957031 149.507812 Z M 147.5 149.507812 L 147.5 147.433594 C 147.363281 147.570312 147.226562 147.777344 147.085938 147.917969 L 147.085938 149.507812 Z M 149.4375 149.507812 L 149.4375 145.359375 C 149.296875 145.496094 149.160156 145.636719 149.023438 145.773438 L 149.023438 149.507812 Z M 155.3125 149.507812 L 155.3125 140.3125 C 155.175781 140.382812 155.035156 140.519531 154.898438 140.589844 L 154.898438 149.507812 Z M 165.132812 149.507812 L 165.132812 134.503906 C 164.992188 134.574219 164.855469 134.644531 164.714844 134.710938 L 164.714844 149.507812 Z M 163.195312 149.507812 L 163.195312 135.472656 C 163.058594 135.542969 162.917969 135.609375 162.78125 135.679688 L 162.78125 149.507812 Z M 161.191406 149.507812 L 161.191406 136.507812 C 161.050781 136.578125 160.914062 136.648438 160.777344 136.71875 L 160.777344 149.507812 Z M 157.25 149.507812 L 157.25 138.859375 C 157.109375 138.929688 156.972656 139.066406 156.835938 139.136719 L 156.835938 149.4375 L 157.25 149.4375 Z M 159.253906 149.507812 L 159.253906 137.617188 C 159.117188 137.683594 158.976562 137.753906 158.839844 137.890625 L 158.839844 149.507812 Z M 222.03125 149.507812 L 222.03125 141.902344 C 221.890625 141.765625 221.753906 141.695312 221.617188 141.554688 L 221.617188 149.507812 Z M 216.152344 149.507812 L 216.152344 137.683594 C 216.015625 137.617188 215.878906 137.546875 215.738281 137.410156 L 215.738281 149.4375 L 216.152344 149.4375 Z M 220.023438 149.507812 L 220.023438 140.382812 C 219.886719 140.3125 219.75 140.175781 219.609375 140.105469 L 219.609375 149.578125 L 220.023438 149.578125 Z M 218.089844 149.507812 L 218.089844 139 C 217.949219 138.929688 217.8125 138.792969 217.675781 138.722656 L 217.675781 149.507812 Z M 212.210938 149.507812 L 212.210938 135.542969 C 212.074219 135.472656 211.9375 135.402344 211.796875 135.335938 L 211.796875 149.507812 Z M 214.148438 149.507812 L 214.148438 136.578125 C 214.011719 136.507812 213.871094 136.441406 213.734375 136.371094 L 213.734375 149.578125 L 214.148438 149.578125 Z M 227.90625 149.507812 L 227.90625 147.570312 C 227.769531 147.433594 227.628906 147.296875 227.492188 147.085938 L 227.492188 149.507812 Z M 229.566406 149.507812 C 229.566406 149.507812 229.496094 149.4375 229.496094 149.4375 L 229.496094 149.507812 Z M 223.964844 149.507812 L 223.964844 143.628906 C 223.828125 143.492188 223.6875 143.355469 223.550781 143.285156 L 223.550781 149.578125 L 223.964844 149.578125 Z M 190.640625 149.507812 L 190.640625 129.804688 C 190.503906 129.804688 190.367188 129.804688 190.226562 129.804688 L 190.226562 149.507812 Z M 225.972656 149.507812 L 225.972656 145.496094 C 225.832031 145.359375 225.695312 145.222656 225.554688 145.082031 L 225.554688 149.507812 Z M 210.277344 149.507812 L 210.277344 134.574219 C 210.140625 134.503906 210 134.4375 209.863281 134.367188 L 209.863281 149.507812 Z M 194.582031 149.507812 L 194.582031 130.148438 C 194.445312 130.148438 194.304688 130.078125 194.167969 130.078125 L 194.167969 149.4375 L 194.582031 149.4375 Z M 196.519531 149.507812 L 196.519531 130.425781 C 196.378906 130.425781 196.242188 130.355469 196.105469 130.355469 L 196.105469 149.507812 Z M 198.453125 149.507812 L 198.453125 130.769531 C 198.316406 130.769531 198.179688 130.703125 198.039062 130.703125 L 198.039062 149.507812 Z M 188.636719 149.507812 L 188.636719 129.734375 C 188.5 129.734375 188.359375 129.734375 188.222656 129.734375 L 188.222656 149.507812 Z M 192.578125 149.507812 L 192.578125 129.941406 C 192.441406 129.941406 192.300781 129.941406 192.164062 129.871094 L 192.164062 149.4375 L 192.578125 149.4375 Z M 200.460938 149.507812 L 200.460938 131.253906 C 200.320312 131.253906 200.183594 131.1875 200.042969 131.1875 L 200.042969 149.578125 L 200.460938 149.578125 Z M 208.273438 149.507812 L 208.273438 133.746094 C 208.132812 133.675781 207.996094 133.605469 207.855469 133.605469 L 207.855469 149.507812 Z M 204.332031 149.507812 L 204.332031 132.363281 C 204.191406 132.292969 204.054688 132.292969 203.917969 132.222656 L 203.917969 149.507812 Z M 206.335938 149.507812 L 206.335938 132.984375 C 206.199219 132.914062 206.058594 132.914062 205.921875 132.84375 L 205.921875 149.507812 Z M 202.394531 149.507812 L 202.394531 131.738281 C 202.257812 131.671875 202.117188 131.671875 201.980469 131.601562 L 201.980469 149.507812 Z M 208.6875 159.53125 L 208.6875 154.554688 L 208.273438 154.554688 L 208.273438 159.53125 Z M 210.898438 159.53125 L 210.898438 154.554688 L 210.484375 154.554688 L 210.484375 159.53125 Z M 199.835938 159.53125 L 199.835938 154.554688 L 199.421875 154.554688 L 199.421875 159.53125 Z M 202.050781 159.53125 L 202.050781 154.554688 L 201.636719 154.554688 L 201.636719 159.53125 Z M 213.113281 159.53125 L 213.113281 154.554688 L 212.695312 154.554688 L 212.695312 159.53125 Z M 204.261719 159.53125 L 204.261719 154.554688 L 203.847656 154.554688 L 203.847656 159.53125 Z M 206.472656 159.53125 L 206.472656 154.554688 L 206.128906 154.554688 L 206.128906 159.53125 Z M 221.960938 159.53125 L 221.960938 154.554688 L 221.546875 154.554688 L 221.546875 159.53125 Z M 224.171875 159.53125 L 224.171875 154.554688 L 223.757812 154.554688 L 223.757812 159.53125 Z M 219.75 159.53125 L 219.75 154.554688 L 219.332031 154.554688 L 219.332031 159.53125 Z M 217.535156 159.53125 L 217.535156 154.554688 L 217.121094 154.554688 L 217.121094 159.53125 Z M 215.324219 159.53125 L 215.324219 154.554688 L 214.910156 154.554688 L 214.910156 159.53125 Z M 292.6875 157.527344 L 292.273438 157.457031 L 292.273438 159.601562 L 292.6875 159.601562 Z M 288.261719 156.488281 L 287.847656 156.421875 L 287.847656 159.601562 L 288.261719 159.601562 Z M 290.476562 156.972656 L 290.058594 156.90625 L 290.058594 159.53125 L 290.476562 159.53125 Z M 226.386719 159.53125 L 226.386719 154.554688 L 225.972656 154.554688 L 225.972656 159.53125 Z M 286.050781 155.9375 L 285.636719 155.867188 L 285.636719 159.601562 L 286.050781 159.601562 Z M 283.839844 155.382812 L 283.421875 155.316406 L 283.421875 159.601562 L 283.839844 159.601562 Z M 294.898438 158.082031 L 294.484375 158.011719 L 294.484375 159.601562 L 294.898438 159.601562 Z M 297.042969 158.632812 L 296.628906 158.5625 L 296.628906 159.601562 L 297.042969 159.601562 Z M 193.269531 159.53125 L 193.269531 154.554688 L 192.855469 154.554688 L 192.855469 159.53125 Z M 195.480469 159.53125 L 195.480469 154.554688 L 195.066406 154.554688 L 195.066406 159.53125 Z M 281.625 154.832031 L 281.210938 154.761719 L 281.210938 159.601562 L 281.625 159.601562 Z M 197.625 159.53125 L 197.625 154.554688 L 197.210938 154.554688 L 197.210938 159.53125 Z M 299.253906 159.117188 L 298.839844 159.046875 L 298.839844 159.53125 L 299.253906 159.53125 Z M 191.058594 159.53125 L 191.058594 154.554688 L 190.640625 154.554688 L 190.640625 159.53125 Z M 263.925781 159.53125 L 263.925781 154.554688 L 263.511719 154.554688 L 263.511719 159.53125 Z M 266.140625 159.53125 L 266.140625 154.554688 L 265.722656 154.554688 L 265.722656 159.53125 Z M 268.351562 159.53125 L 268.351562 154.554688 L 267.9375 154.554688 L 267.9375 159.53125 Z M 270.5625 159.53125 L 270.5625 154.554688 L 270.148438 154.554688 L 270.148438 159.53125 Z M 259.503906 159.53125 L 259.503906 154.554688 L 259.085938 154.554688 L 259.085938 159.53125 Z M 261.714844 159.53125 L 261.714844 154.554688 L 261.300781 154.554688 L 261.300781 159.53125 Z M 279.414062 154.554688 L 279 154.554688 L 279 159.53125 L 279.414062 159.53125 Z M 257.289062 159.53125 L 257.289062 154.554688 L 256.875 154.554688 L 256.875 159.53125 Z M 188.84375 159.53125 L 188.84375 154.554688 L 188.429688 154.554688 L 188.429688 159.53125 Z M 272.777344 159.53125 L 272.777344 154.554688 L 272.363281 154.554688 L 272.363281 159.53125 Z M 274.988281 159.53125 L 274.988281 154.554688 L 274.574219 154.554688 L 274.574219 159.53125 Z M 228.597656 159.53125 L 228.597656 154.554688 L 228.183594 154.554688 L 228.183594 159.53125 Z M 276.785156 159.53125 L 277.199219 159.53125 L 277.199219 154.554688 L 276.785156 154.554688 Z M 237.449219 159.53125 L 237.449219 154.554688 L 237.03125 154.554688 L 237.03125 159.53125 Z M 239.660156 159.53125 L 239.660156 154.554688 L 239.246094 154.554688 L 239.246094 159.53125 Z M 235.234375 159.53125 L 235.234375 154.554688 L 234.820312 154.554688 L 234.820312 159.53125 Z M 255.078125 159.53125 L 255.078125 154.554688 L 254.664062 154.554688 L 254.664062 159.53125 Z M 241.871094 159.53125 L 241.871094 154.554688 L 241.457031 154.554688 L 241.457031 159.53125 Z M 230.808594 159.53125 L 230.808594 154.554688 L 230.394531 154.554688 L 230.394531 159.53125 Z M 233.023438 159.53125 L 233.023438 154.554688 L 232.609375 154.554688 L 232.609375 159.53125 Z M 250.652344 159.53125 L 250.652344 154.554688 L 250.238281 154.554688 L 250.238281 159.53125 Z M 252.863281 159.53125 L 252.863281 154.554688 L 252.449219 154.554688 L 252.449219 159.53125 Z M 244.085938 159.53125 L 244.085938 154.554688 L 243.667969 154.554688 L 243.667969 159.53125 Z M 248.441406 159.53125 L 248.441406 154.554688 L 248.027344 154.554688 L 248.027344 159.53125 Z M 246.226562 159.53125 L 246.226562 154.554688 L 245.8125 154.554688 L 245.8125 159.53125 Z M 149.023438 159.53125 L 149.023438 154.554688 L 148.605469 154.554688 L 148.605469 159.53125 Z M 131.390625 159.53125 L 131.390625 154.554688 L 130.976562 154.554688 L 130.976562 159.53125 Z M 133.605469 159.53125 L 133.605469 154.554688 L 133.191406 154.554688 L 133.191406 159.53125 Z M 129.179688 159.53125 L 129.179688 154.554688 L 128.765625 154.554688 L 128.765625 159.53125 Z M 122.542969 159.53125 L 122.542969 154.554688 L 122.128906 154.554688 L 122.128906 159.53125 Z M 135.816406 159.53125 L 135.816406 154.554688 L 135.402344 154.554688 L 135.402344 159.53125 Z M 126.96875 159.53125 L 126.96875 154.554688 L 126.554688 154.554688 L 126.554688 159.53125 Z M 124.753906 159.53125 L 124.753906 154.554688 L 124.339844 154.554688 L 124.339844 159.53125 Z M 146.878906 159.53125 L 146.878906 154.554688 L 146.464844 154.554688 L 146.464844 159.53125 Z M 144.667969 159.53125 L 144.667969 154.554688 L 144.25 154.554688 L 144.25 159.53125 Z M 142.453125 159.53125 L 142.453125 154.554688 L 142.039062 154.554688 L 142.039062 159.53125 Z M 138.03125 159.53125 L 138.03125 154.554688 L 137.613281 154.554688 L 137.613281 159.53125 Z M 140.242188 159.53125 L 140.242188 154.554688 L 139.828125 154.554688 L 139.828125 159.53125 Z M 120.332031 159.53125 L 120.332031 154.554688 L 119.914062 154.554688 L 119.914062 159.53125 Z M 151.234375 159.53125 L 151.234375 154.554688 L 150.820312 154.554688 L 150.820312 159.53125 Z M 102.632812 159.53125 L 102.632812 154.554688 L 102.21875 154.554688 L 102.21875 159.53125 Z M 104.84375 159.53125 L 104.84375 154.554688 L 104.5 154.554688 L 104.5 159.53125 Z M 97.863281 159.53125 L 98.277344 159.53125 L 98.277344 154.554688 L 97.863281 154.554688 Z M 186.632812 159.53125 L 186.632812 154.554688 L 186.21875 154.554688 L 186.21875 159.53125 Z M 107.054688 159.53125 L 107.054688 154.554688 L 106.640625 154.554688 L 106.640625 159.53125 Z M 100.417969 159.53125 L 100.417969 154.554688 L 100.003906 154.554688 L 100.003906 159.53125 Z M 115.90625 159.53125 L 115.90625 154.554688 L 115.492188 154.554688 L 115.492188 159.53125 Z M 118.117188 159.53125 L 118.117188 154.554688 L 117.703125 154.554688 L 117.703125 159.53125 Z M 109.269531 159.53125 L 109.269531 154.554688 L 108.855469 154.554688 L 108.855469 159.53125 Z M 113.695312 159.53125 L 113.695312 154.554688 L 113.277344 154.554688 L 113.277344 159.53125 Z M 111.480469 159.53125 L 111.480469 154.554688 L 111.066406 154.554688 L 111.066406 159.53125 Z M 177.78125 159.53125 L 177.78125 154.554688 L 177.367188 154.554688 L 177.367188 159.53125 Z M 78.363281 158.703125 L 77.949219 158.773438 L 77.949219 159.53125 L 78.363281 159.53125 Z M 96.0625 154.554688 L 95.648438 154.554688 L 95.648438 159.53125 L 96.0625 159.53125 Z M 80.578125 158.148438 L 80.164062 158.21875 L 80.164062 159.53125 L 80.578125 159.53125 Z M 82.789062 157.664062 L 82.375 157.734375 L 82.375 159.53125 L 82.789062 159.53125 Z M 153.445312 159.53125 L 153.445312 154.554688 L 153.03125 154.554688 L 153.03125 159.53125 Z M 184.421875 159.53125 L 184.421875 154.554688 L 184.003906 154.554688 L 184.003906 159.53125 Z M 87.214844 156.558594 L 86.800781 156.628906 L 86.800781 159.53125 L 87.214844 159.53125 Z M 91.640625 155.523438 L 91.222656 155.589844 L 91.222656 159.53125 L 91.640625 159.53125 Z M 93.851562 154.96875 L 93.4375 155.039062 L 93.4375 159.53125 L 93.851562 159.53125 Z M 179.996094 159.53125 L 179.996094 154.554688 L 179.582031 154.554688 L 179.582031 159.53125 Z M 85.003906 157.113281 L 84.585938 157.179688 L 84.585938 159.53125 L 85.003906 159.53125 Z M 89.425781 156.007812 L 89.011719 156.074219 L 89.011719 159.53125 L 89.425781 159.53125 Z M 182.207031 159.53125 L 182.207031 154.554688 L 181.792969 154.554688 L 181.792969 159.53125 Z M 162.296875 159.53125 L 162.296875 154.554688 L 161.882812 154.554688 L 161.882812 159.53125 Z M 160.085938 159.53125 L 160.085938 154.554688 L 159.667969 154.554688 L 159.667969 159.53125 Z M 155.660156 159.53125 L 155.660156 154.554688 L 155.246094 154.554688 L 155.246094 159.53125 Z M 164.507812 159.53125 L 164.507812 154.554688 L 164.09375 154.554688 L 164.09375 159.53125 Z M 157.871094 159.53125 L 157.871094 154.554688 L 157.457031 154.554688 L 157.457031 159.53125 Z M 175.570312 159.53125 L 175.570312 154.554688 L 175.15625 154.554688 L 175.15625 159.53125 Z M 173.359375 159.53125 L 173.359375 154.554688 L 172.945312 154.554688 L 172.945312 159.53125 Z M 76.152344 159.253906 L 75.738281 159.324219 L 75.738281 159.53125 L 76.152344 159.53125 Z M 168.933594 159.53125 L 168.933594 154.554688 L 168.519531 154.554688 L 168.519531 159.53125 Z M 166.722656 159.53125 L 166.722656 154.554688 L 166.304688 154.554688 L 166.304688 159.53125 Z M 171.144531 159.53125 L 171.144531 154.554688 L 170.730469 154.554688 L 170.730469 159.53125 Z M 208.757812 225.488281 L 208.757812 241.320312 C 208.894531 241.25 209.03125 241.183594 209.171875 241.183594 L 209.171875 225.558594 L 208.757812 225.558594 Z M 200.875 225.488281 L 200.875 243.808594 C 201.011719 243.808594 201.152344 243.738281 201.289062 243.738281 L 201.289062 225.558594 L 200.875 225.558594 Z M 206.75 225.488281 L 206.75 242.082031 C 206.890625 242.011719 207.027344 242.011719 207.164062 241.941406 L 207.164062 225.558594 L 206.75 225.558594 Z M 204.816406 225.488281 L 204.816406 242.703125 C 204.953125 242.632812 205.089844 242.632812 205.230469 242.566406 L 205.230469 225.488281 Z M 189.121094 225.488281 L 189.121094 245.261719 C 189.257812 245.261719 189.398438 245.261719 189.535156 245.261719 L 189.535156 225.488281 Z M 198.9375 225.488281 L 198.9375 244.222656 C 199.078125 244.222656 199.214844 244.15625 199.351562 244.15625 L 199.351562 225.488281 Z M 191.058594 225.488281 L 191.058594 245.191406 C 191.195312 245.191406 191.332031 245.191406 191.472656 245.191406 L 191.472656 225.488281 Z M 193.0625 225.488281 L 193.0625 245.054688 C 193.199219 245.054688 193.339844 245.054688 193.476562 244.984375 L 193.476562 225.488281 Z M 194.996094 225.488281 L 194.996094 244.847656 C 195.136719 244.847656 195.273438 244.777344 195.414062 244.777344 L 195.414062 225.488281 Z M 196.933594 225.488281 L 196.933594 244.570312 C 197.070312 244.570312 197.210938 244.5 197.347656 244.5 L 197.347656 225.488281 Z M 202.808594 225.488281 L 202.808594 243.257812 C 202.949219 243.1875 203.085938 243.1875 203.226562 243.117188 L 203.226562 225.417969 L 202.808594 225.417969 Z M 222.445312 225.488281 L 222.445312 233.164062 C 222.582031 233.023438 222.722656 232.953125 222.859375 232.816406 L 222.859375 225.488281 Z M 224.449219 225.488281 L 224.449219 231.503906 C 224.589844 231.363281 224.726562 231.226562 224.863281 231.15625 L 224.863281 225.488281 Z M 228.320312 225.488281 L 228.320312 227.5625 C 228.460938 227.425781 228.597656 227.214844 228.738281 227.078125 L 228.738281 225.488281 Z M 226.386719 225.488281 L 226.386719 229.636719 C 226.523438 229.496094 226.664062 229.359375 226.800781 229.222656 L 226.800781 225.488281 Z M 220.507812 225.488281 L 220.507812 234.683594 C 220.648438 234.613281 220.785156 234.476562 220.925781 234.40625 L 220.925781 225.488281 Z M 210.691406 225.488281 L 210.691406 240.492188 C 210.832031 240.421875 210.96875 240.351562 211.105469 240.285156 L 211.105469 225.488281 Z M 212.628906 225.488281 L 212.628906 239.523438 C 212.765625 239.453125 212.902344 239.382812 213.042969 239.316406 L 213.042969 225.488281 Z M 214.632812 225.488281 L 214.632812 238.484375 C 214.769531 238.417969 214.910156 238.347656 215.046875 238.277344 L 215.046875 225.488281 Z M 218.503906 225.488281 L 218.503906 236.066406 C 218.640625 235.996094 218.78125 235.859375 218.917969 235.789062 L 218.917969 225.488281 Z M 216.570312 225.488281 L 216.570312 237.378906 C 216.707031 237.308594 216.84375 237.242188 216.984375 237.101562 L 216.984375 225.488281 Z M 153.792969 225.488281 L 153.792969 233.09375 C 153.929688 233.230469 154.070312 233.300781 154.207031 233.4375 L 154.207031 225.488281 Z M 159.667969 225.488281 L 159.667969 237.308594 C 159.808594 237.378906 159.945312 237.449219 160.085938 237.585938 L 160.085938 225.558594 L 159.667969 225.558594 Z M 155.726562 225.488281 L 155.726562 234.613281 C 155.867188 234.683594 156.003906 234.820312 156.144531 234.890625 L 156.144531 225.417969 L 155.726562 225.417969 Z M 157.734375 225.488281 L 157.734375 235.996094 C 157.871094 236.066406 158.011719 236.203125 158.148438 236.273438 L 158.148438 225.488281 Z M 163.609375 225.488281 L 163.609375 239.453125 C 163.75 239.523438 163.886719 239.59375 164.023438 239.660156 L 164.023438 225.488281 Z M 161.675781 225.488281 L 161.675781 238.417969 C 161.8125 238.484375 161.949219 238.554688 162.089844 238.625 L 162.089844 225.417969 L 161.675781 225.417969 Z M 148.332031 225.488281 L 147.917969 225.488281 L 147.917969 227.425781 C 148.054688 227.5625 148.191406 227.699219 148.332031 227.90625 Z M 146.257812 225.488281 C 146.257812 225.488281 146.324219 225.558594 146.324219 225.558594 L 146.324219 225.488281 Z M 151.855469 225.488281 L 151.855469 231.363281 C 151.996094 231.503906 152.132812 231.640625 152.273438 231.710938 L 152.273438 225.417969 L 151.855469 225.417969 Z M 185.179688 225.488281 L 185.179688 245.191406 C 185.320312 245.191406 185.457031 245.191406 185.59375 245.191406 L 185.59375 225.488281 Z M 149.851562 225.488281 L 149.851562 229.496094 C 149.988281 229.636719 150.128906 229.773438 150.265625 229.914062 L 150.265625 225.488281 Z M 165.546875 225.488281 L 165.546875 240.421875 C 165.683594 240.492188 165.824219 240.558594 165.960938 240.628906 L 165.960938 225.488281 Z M 181.238281 225.488281 L 181.238281 244.847656 C 181.378906 244.847656 181.515625 244.914062 181.65625 244.914062 L 181.65625 225.558594 L 181.238281 225.558594 Z M 179.304688 225.488281 L 179.304688 244.570312 C 179.441406 244.570312 179.582031 244.640625 179.71875 244.640625 L 179.71875 225.488281 Z M 177.367188 225.488281 L 177.367188 244.222656 C 177.507812 244.222656 177.644531 244.292969 177.78125 244.292969 L 177.78125 225.488281 Z M 187.53125 225.488281 L 187.117188 225.488281 L 187.117188 245.261719 C 187.253906 245.261719 187.394531 245.261719 187.53125 245.261719 Z M 183.246094 225.488281 L 183.246094 245.054688 C 183.382812 245.054688 183.519531 245.054688 183.660156 245.121094 L 183.660156 225.558594 L 183.246094 225.558594 Z M 175.363281 225.488281 L 175.363281 243.738281 C 175.5 243.738281 175.640625 243.808594 175.777344 243.808594 L 175.777344 225.417969 L 175.363281 225.417969 Z M 167.550781 225.488281 L 167.550781 241.25 C 167.6875 241.320312 167.828125 241.390625 167.964844 241.390625 L 167.964844 225.488281 Z M 171.421875 225.488281 L 171.421875 242.703125 C 171.5625 242.773438 171.699219 242.773438 171.835938 242.839844 L 171.835938 225.558594 L 171.421875 225.558594 Z M 169.488281 225.488281 L 169.488281 242.011719 C 169.625 242.082031 169.761719 242.082031 169.902344 242.148438 L 169.902344 225.488281 Z M 173.425781 225.488281 L 173.425781 243.257812 C 173.566406 243.324219 173.703125 243.324219 173.84375 243.394531 L 173.84375 225.488281 Z M 170.109375 215.464844 L 170.109375 220.441406 L 170.523438 220.441406 L 170.523438 215.464844 Z M 167.894531 215.464844 L 167.894531 220.441406 L 168.3125 220.441406 L 168.3125 215.464844 Z M 178.957031 215.464844 L 178.957031 220.441406 L 179.375 220.441406 L 179.375 215.464844 Z M 176.746094 215.464844 L 176.746094 220.441406 L 177.160156 220.441406 L 177.160156 215.464844 Z M 165.683594 215.464844 L 165.683594 220.441406 L 166.097656 220.441406 L 166.097656 215.464844 Z M 174.535156 215.464844 L 174.535156 220.441406 L 174.949219 220.441406 L 174.949219 215.464844 Z M 172.320312 215.464844 L 172.320312 220.441406 L 172.734375 220.441406 L 172.734375 215.464844 Z M 156.835938 215.464844 L 156.835938 220.441406 L 157.25 220.441406 L 157.25 215.464844 Z M 154.621094 215.464844 L 154.621094 220.441406 L 155.035156 220.441406 L 155.035156 215.464844 Z M 159.046875 215.464844 L 159.046875 220.441406 L 159.460938 220.441406 L 159.460938 215.464844 Z M 161.257812 215.464844 L 161.257812 220.441406 L 161.675781 220.441406 L 161.675781 215.464844 Z M 163.472656 215.464844 L 163.472656 220.441406 L 163.886719 220.441406 L 163.886719 215.464844 Z M 86.175781 217.46875 L 86.59375 217.539062 L 86.59375 215.394531 L 86.175781 215.394531 Z M 90.601562 218.503906 L 91.015625 218.574219 L 91.015625 215.394531 L 90.601562 215.394531 Z M 88.390625 218.019531 L 88.804688 218.089844 L 88.804688 215.464844 L 88.390625 215.464844 Z M 152.410156 215.464844 L 152.410156 220.441406 L 152.824219 220.441406 L 152.824219 215.464844 Z M 92.746094 219.058594 L 93.160156 219.128906 L 93.160156 215.394531 L 92.746094 215.394531 Z M 94.957031 219.613281 L 95.371094 219.679688 L 95.371094 215.394531 L 94.957031 215.394531 Z M 83.964844 216.914062 L 84.378906 216.984375 L 84.378906 215.394531 L 83.964844 215.394531 Z M 81.753906 216.363281 L 82.167969 216.429688 L 82.167969 215.394531 L 81.753906 215.394531 Z M 185.59375 215.464844 L 185.59375 220.441406 L 186.011719 220.441406 L 186.011719 215.464844 Z M 183.382812 215.464844 L 183.382812 220.441406 L 183.796875 220.441406 L 183.796875 215.464844 Z M 97.171875 220.164062 L 97.585938 220.234375 L 97.585938 215.394531 L 97.171875 215.394531 Z M 181.171875 215.464844 L 181.171875 220.441406 L 181.585938 220.441406 L 181.585938 215.464844 Z M 79.539062 215.878906 L 79.953125 215.949219 L 79.953125 215.464844 L 79.539062 215.464844 Z M 187.808594 215.464844 L 187.808594 220.441406 L 188.222656 220.441406 L 188.222656 215.464844 Z M 114.867188 215.464844 L 114.867188 220.441406 L 115.285156 220.441406 L 115.285156 215.464844 Z M 112.65625 215.464844 L 112.65625 220.441406 L 113.070312 220.441406 L 113.070312 215.464844 Z M 110.445312 215.464844 L 110.445312 220.441406 L 110.859375 220.441406 L 110.859375 215.464844 Z M 108.230469 215.464844 L 108.230469 220.441406 L 108.648438 220.441406 L 108.648438 215.464844 Z M 119.292969 215.464844 L 119.292969 220.441406 L 119.707031 220.441406 L 119.707031 215.464844 Z M 117.082031 215.464844 L 117.082031 220.441406 L 117.496094 220.441406 L 117.496094 215.464844 Z M 99.382812 220.441406 L 99.796875 220.441406 L 99.796875 215.464844 L 99.382812 215.464844 Z M 121.507812 215.464844 L 121.507812 220.441406 L 121.921875 220.441406 L 121.921875 215.464844 Z M 190.019531 215.464844 L 190.019531 220.441406 L 190.433594 220.441406 L 190.433594 215.464844 Z M 106.019531 215.464844 L 106.019531 220.441406 L 106.433594 220.441406 L 106.433594 215.464844 Z M 103.808594 215.464844 L 103.808594 220.441406 L 104.222656 220.441406 L 104.222656 215.464844 Z M 150.199219 215.464844 L 150.199219 220.441406 L 150.613281 220.441406 L 150.613281 215.464844 Z M 102.007812 215.464844 L 101.59375 215.464844 L 101.59375 220.441406 L 102.007812 220.441406 Z M 141.347656 215.464844 L 141.347656 220.441406 L 141.761719 220.441406 L 141.761719 215.464844 Z M 139.203125 215.464844 L 139.203125 220.441406 L 139.621094 220.441406 L 139.621094 215.464844 Z M 143.558594 215.464844 L 143.558594 220.441406 L 143.976562 220.441406 L 143.976562 215.464844 Z M 123.71875 215.464844 L 123.71875 220.441406 L 124.132812 220.441406 L 124.132812 215.464844 Z M 136.992188 215.464844 L 136.992188 220.441406 L 137.40625 220.441406 L 137.40625 215.464844 Z M 147.984375 215.464844 L 147.984375 220.441406 L 148.398438 220.441406 L 148.398438 215.464844 Z M 145.773438 215.464844 L 145.773438 220.441406 L 146.1875 220.441406 L 146.1875 215.464844 Z M 128.144531 215.464844 L 128.144531 220.441406 L 128.558594 220.441406 L 128.558594 215.464844 Z M 125.929688 215.464844 L 125.929688 220.441406 L 126.34375 220.441406 L 126.34375 215.464844 Z M 134.78125 215.464844 L 134.78125 220.441406 L 135.195312 220.441406 L 135.195312 215.464844 Z M 130.355469 215.464844 L 130.355469 220.441406 L 130.769531 220.441406 L 130.769531 215.464844 Z M 132.566406 215.464844 L 132.566406 220.441406 L 132.984375 220.441406 L 132.984375 215.464844 Z M 229.773438 215.464844 L 229.773438 220.441406 L 230.1875 220.441406 L 230.1875 215.464844 Z M 247.402344 215.464844 L 247.402344 220.441406 L 247.816406 220.441406 L 247.816406 215.464844 Z M 245.191406 215.464844 L 245.191406 220.441406 L 245.605469 220.441406 L 245.605469 215.464844 Z M 249.617188 215.464844 L 249.617188 220.441406 L 250.03125 220.441406 L 250.03125 215.464844 Z M 256.253906 215.464844 L 256.253906 220.441406 L 256.667969 220.441406 L 256.667969 215.464844 Z M 242.976562 215.464844 L 242.976562 220.441406 L 243.394531 220.441406 L 243.394531 215.464844 Z M 251.828125 215.464844 L 251.828125 220.441406 L 252.242188 220.441406 L 252.242188 215.464844 Z M 254.039062 215.464844 L 254.039062 220.441406 L 254.457031 220.441406 L 254.457031 215.464844 Z M 231.984375 215.464844 L 231.984375 220.441406 L 232.402344 220.441406 L 232.402344 215.464844 Z M 234.199219 215.464844 L 234.199219 220.441406 L 234.613281 220.441406 L 234.613281 215.464844 Z M 236.410156 215.464844 L 236.410156 220.441406 L 236.824219 220.441406 L 236.824219 215.464844 Z M 240.765625 215.464844 L 240.765625 220.441406 L 241.179688 220.441406 L 241.179688 215.464844 Z M 238.621094 215.464844 L 238.621094 220.441406 L 239.039062 220.441406 L 239.039062 215.464844 Z M 258.464844 215.464844 L 258.464844 220.441406 L 258.878906 220.441406 L 258.878906 215.464844 Z M 227.5625 215.464844 L 227.5625 220.441406 L 227.976562 220.441406 L 227.976562 215.464844 Z M 276.164062 215.464844 L 276.164062 220.441406 L 276.578125 220.441406 L 276.578125 215.464844 Z M 273.953125 215.464844 L 273.953125 220.441406 L 274.367188 220.441406 L 274.367188 215.464844 Z M 280.933594 215.464844 L 280.519531 215.464844 L 280.519531 220.441406 L 280.933594 220.441406 Z M 192.164062 215.464844 L 192.164062 220.441406 L 192.578125 220.441406 L 192.578125 215.464844 Z M 271.738281 215.464844 L 271.738281 220.441406 L 272.152344 220.441406 L 272.152344 215.464844 Z M 278.375 215.464844 L 278.375 220.441406 L 278.792969 220.441406 L 278.792969 215.464844 Z M 262.890625 215.464844 L 262.890625 220.441406 L 263.304688 220.441406 L 263.304688 215.464844 Z M 260.675781 215.464844 L 260.675781 220.441406 L 261.09375 220.441406 L 261.09375 215.464844 Z M 269.527344 215.464844 L 269.527344 220.441406 L 269.941406 220.441406 L 269.941406 215.464844 Z M 265.101562 215.464844 L 265.101562 220.441406 L 265.515625 220.441406 L 265.515625 215.464844 Z M 267.3125 215.464844 L 267.3125 220.441406 L 267.730469 220.441406 L 267.730469 215.464844 Z M 201.011719 215.464844 L 201.011719 220.441406 L 201.425781 220.441406 L 201.425781 215.464844 Z M 300.429688 216.292969 L 300.84375 216.222656 L 300.84375 215.464844 L 300.429688 215.464844 Z M 282.800781 220.441406 L 283.214844 220.441406 L 283.214844 215.464844 L 282.800781 215.464844 Z M 298.21875 216.847656 L 298.632812 216.777344 L 298.632812 215.464844 L 298.21875 215.464844 Z M 296.007812 217.328125 L 296.421875 217.261719 L 296.421875 215.464844 L 296.007812 215.464844 Z M 225.347656 215.464844 L 225.347656 220.441406 L 225.761719 220.441406 L 225.761719 215.464844 Z M 194.375 215.464844 L 194.375 220.441406 L 194.789062 220.441406 L 194.789062 215.464844 Z M 291.582031 218.4375 L 291.996094 218.367188 L 291.996094 215.464844 L 291.582031 215.464844 Z M 287.226562 219.472656 L 287.640625 219.402344 L 287.640625 215.464844 L 287.226562 215.464844 Z M 285.011719 220.027344 L 285.429688 219.957031 L 285.429688 215.464844 L 285.011719 215.464844 Z M 198.800781 215.464844 L 198.800781 220.441406 L 199.214844 220.441406 L 199.214844 215.464844 Z M 293.792969 217.882812 L 294.207031 217.8125 L 294.207031 215.464844 L 293.792969 215.464844 Z M 289.4375 218.988281 L 289.851562 218.921875 L 289.851562 215.464844 L 289.4375 215.464844 Z M 196.589844 215.464844 L 196.589844 220.441406 L 197.003906 220.441406 L 197.003906 215.464844 Z M 216.5 215.464844 L 216.5 220.441406 L 216.914062 220.441406 L 216.914062 215.464844 Z M 218.710938 215.464844 L 218.710938 220.441406 L 219.125 220.441406 L 219.125 215.464844 Z M 223.136719 215.464844 L 223.136719 220.441406 L 223.550781 220.441406 L 223.550781 215.464844 Z M 214.285156 215.464844 L 214.285156 220.441406 L 214.703125 220.441406 L 214.703125 215.464844 Z M 220.925781 215.464844 L 220.925781 220.441406 L 221.339844 220.441406 L 221.339844 215.464844 Z M 203.226562 215.464844 L 203.226562 220.441406 L 203.640625 220.441406 L 203.640625 215.464844 Z M 205.4375 215.464844 L 205.4375 220.441406 L 205.851562 220.441406 L 205.851562 215.464844 Z M 302.644531 215.738281 L 303.058594 215.671875 L 303.058594 215.464844 L 302.644531 215.464844 Z M 209.863281 215.464844 L 209.863281 220.441406 L 210.277344 220.441406 L 210.277344 215.464844 Z M 212.074219 215.464844 L 212.074219 220.441406 L 212.488281 220.441406 L 212.488281 215.464844 Z M 207.648438 215.464844 L 207.648438 220.441406 L 208.066406 220.441406 L 208.066406 215.464844 Z M 207.648438 215.464844 " fill-opacity="1" fill-rule="nonzero"/></g><g transform="matrix(1, 0, 0, 1, 167, 111)"><g clip-path="url(#aedd0179cc)"><g fill="#004aad" fill-opacity="1"><g transform="translate(2.515933, 12.242071)"><g><path d="M 1.171875 -0.859375 C 1.085938 -0.691406 1.070312 -0.507812 1.125 -0.3125 L 0.75 -0.203125 L 0.28125 -1.9375 L 0.71875 -2.0625 C 0.945312 -1.65625 1.269531 -1.363281 1.6875 -1.1875 C 2.113281 -1.007812 2.578125 -0.984375 3.078125 -1.109375 C 3.703125 -1.285156 4.070312 -1.570312 4.1875 -1.96875 C 4.226562 -2.113281 4.234375 -2.253906 4.203125 -2.390625 C 4.117188 -2.703125 3.9375 -2.941406 3.65625 -3.109375 C 3.375 -3.273438 2.941406 -3.378906 2.359375 -3.421875 C 1.773438 -3.472656 1.328125 -3.539062 1.015625 -3.625 C 0.703125 -3.71875 0.441406 -3.835938 0.234375 -3.984375 C -0.128906 -4.222656 -0.378906 -4.597656 -0.515625 -5.109375 C -0.660156 -5.617188 -0.550781 -6.09375 -0.1875 -6.53125 C 0.164062 -6.96875 0.65625 -7.269531 1.28125 -7.4375 C 1.632812 -7.53125 1.945312 -7.566406 2.21875 -7.546875 C 2.488281 -7.535156 2.707031 -7.492188 2.875 -7.421875 C 2.90625 -7.535156 2.90625 -7.65625 2.875 -7.78125 L 3.265625 -7.890625 L 3.703125 -6.296875 L 3.296875 -6.1875 C 3.148438 -6.59375 2.890625 -6.867188 2.515625 -7.015625 C 2.148438 -7.171875 1.757812 -7.191406 1.34375 -7.078125 C 0.9375 -6.972656 0.625 -6.800781 0.40625 -6.5625 C 0.195312 -6.332031 0.128906 -6.070312 0.203125 -5.78125 C 0.285156 -5.5 0.476562 -5.28125 0.78125 -5.125 C 1.09375 -4.96875 1.65625 -4.820312 2.46875 -4.6875 C 3.238281 -4.59375 3.796875 -4.4375 4.140625 -4.21875 C 4.492188 -4.007812 4.726562 -3.695312 4.84375 -3.28125 C 5.007812 -2.675781 4.929688 -2.144531 4.609375 -1.6875 C 4.285156 -1.238281 3.820312 -0.929688 3.21875 -0.765625 C 2.625 -0.609375 2.066406 -0.585938 1.546875 -0.703125 C 1.398438 -0.742188 1.273438 -0.796875 1.171875 -0.859375 Z M 1.171875 -0.859375 "/></g></g></g><g fill="#004aad" fill-opacity="1"><g transform="translate(9.121976, 10.462012)"><g><path d="M 0.203125 -0.375 L 0.875 -0.46875 L 0.0625 -6.484375 L -0.609375 -6.390625 L -0.65625 -6.734375 L 1.9375 -7.09375 L 1.984375 -6.75 L 1.25 -6.640625 L 1.625 -3.8125 L 4.875 -4.25 L 4.515625 -7.09375 L 3.765625 -6.984375 L 3.71875 -7.328125 L 6.328125 -7.6875 L 6.375 -7.34375 L 5.6875 -7.25 L 6.5 -1.234375 L 7.1875 -1.328125 L 7.234375 -0.984375 L 4.625 -0.625 L 4.578125 -0.96875 L 5.3125 -1.0625 L 4.921875 -3.90625 L 1.671875 -3.46875 L 2.0625 -0.625 L 2.78125 -0.734375 L 2.828125 -0.390625 L 0.25 -0.03125 Z M 0.203125 -0.375 "/></g></g></g><g fill="#004aad" fill-opacity="1"><g transform="translate(17.38513, 9.421339)"><g><path d="M 3.328125 -6.765625 C 5.023438 -6.765625 5.875 -6.191406 5.875 -5.046875 C 5.875 -4.535156 5.71875 -4.125 5.40625 -3.8125 C 5.09375 -3.507812 4.675781 -3.316406 4.15625 -3.234375 C 4.84375 -3.117188 5.316406 -2.765625 5.578125 -2.171875 C 5.679688 -1.921875 5.769531 -1.648438 5.84375 -1.359375 C 5.925781 -1.078125 6 -0.875 6.0625 -0.75 C 6.195312 -0.476562 6.394531 -0.34375 6.65625 -0.34375 L 6.828125 -0.34375 L 6.84375 0.015625 L 6.21875 0.015625 C 5.644531 0.015625 5.253906 -0.0625 5.046875 -0.21875 C 4.847656 -0.375 4.695312 -0.6875 4.59375 -1.15625 C 4.488281 -1.582031 4.40625 -1.875 4.34375 -2.03125 C 4.21875 -2.363281 4.050781 -2.625 3.84375 -2.8125 C 3.632812 -3.007812 3.367188 -3.109375 3.046875 -3.109375 L 2.234375 -3.109375 L 2.234375 -0.34375 L 3.265625 -0.34375 L 3.265625 0 L 0.328125 0 L 0.328125 -0.34375 L 1.046875 -0.34375 L 1.046875 -6.421875 L 0.328125 -6.421875 L 0.328125 -6.765625 Z M 3.25 -3.40625 C 3.789062 -3.40625 4.171875 -3.578125 4.390625 -3.921875 C 4.546875 -4.171875 4.625 -4.523438 4.625 -4.984375 C 4.625 -5.453125 4.53125 -5.789062 4.34375 -6 C 4.113281 -6.28125 3.722656 -6.421875 3.171875 -6.421875 L 2.234375 -6.421875 L 2.234375 -3.40625 Z M 3.25 -3.40625 "/></g></g></g><g fill="#004aad" fill-opacity="1"><g transform="translate(24.966111, 9.473693)"><g><path d="M 0.359375 -0.296875 L 1.234375 -0.1875 L 2.015625 -6.21875 L 1.140625 -6.328125 L 1.1875 -6.65625 L 6.859375 -5.921875 L 6.609375 -4 L 6.265625 -4.046875 C 6.273438 -4.296875 6.273438 -4.515625 6.265625 -4.703125 C 6.265625 -4.898438 6.234375 -5.070312 6.171875 -5.21875 C 6.023438 -5.507812 5.703125 -5.707031 5.203125 -5.8125 L 3.203125 -6.0625 L 2.84375 -3.296875 L 3.9375 -3.15625 C 4.1875 -3.125 4.378906 -3.140625 4.515625 -3.203125 C 4.660156 -3.273438 4.757812 -3.410156 4.8125 -3.609375 C 4.832031 -3.660156 4.847656 -3.71875 4.859375 -3.78125 C 4.878906 -3.84375 4.894531 -3.910156 4.90625 -3.984375 L 5.265625 -3.9375 L 4.96875 -1.671875 L 4.609375 -1.71875 C 4.617188 -1.78125 4.625 -1.851562 4.625 -1.9375 C 4.632812 -2.03125 4.640625 -2.113281 4.640625 -2.1875 C 4.628906 -2.375 4.5625 -2.515625 4.4375 -2.609375 C 4.3125 -2.710938 4.128906 -2.78125 3.890625 -2.8125 L 2.796875 -2.953125 L 2.421875 -0.03125 L 4.296875 0.203125 C 5.054688 0.304688 5.566406 0.015625 5.828125 -0.671875 C 5.898438 -0.878906 5.957031 -1.082031 6 -1.28125 L 6.34375 -1.25 L 6.078125 0.78125 L 0.3125 0.046875 Z M 0.359375 -0.296875 "/></g></g></g><g fill="#004aad" fill-opacity="1"><g transform="translate(32.481623, 10.499469)"><g><path d="M 0.390625 -0.25 L 1.25 -0.015625 L 2.796875 -5.890625 L 1.9375 -6.125 L 2.015625 -6.46875 L 7.546875 -5.015625 L 7.0625 -3.140625 L 6.734375 -3.21875 C 6.773438 -3.46875 6.804688 -3.6875 6.828125 -3.875 C 6.847656 -4.0625 6.832031 -4.226562 6.78125 -4.375 C 6.6875 -4.6875 6.394531 -4.921875 5.90625 -5.078125 L 3.953125 -5.59375 L 3.234375 -2.90625 L 4.3125 -2.625 C 4.550781 -2.5625 4.742188 -2.550781 4.890625 -2.59375 C 5.035156 -2.644531 5.148438 -2.765625 5.234375 -2.953125 C 5.265625 -3.003906 5.289062 -3.0625 5.3125 -3.125 C 5.332031 -3.1875 5.351562 -3.25 5.375 -3.3125 L 5.734375 -3.21875 L 5.140625 -1.015625 L 4.78125 -1.109375 C 4.800781 -1.171875 4.816406 -1.242188 4.828125 -1.328125 C 4.847656 -1.410156 4.863281 -1.488281 4.875 -1.5625 C 4.894531 -1.757812 4.847656 -1.914062 4.734375 -2.03125 C 4.628906 -2.144531 4.460938 -2.234375 4.234375 -2.296875 L 3.15625 -2.578125 L 2.40625 0.28125 L 4.234375 0.765625 C 4.984375 0.960938 5.523438 0.734375 5.859375 0.078125 C 5.960938 -0.109375 6.046875 -0.304688 6.109375 -0.515625 L 6.4375 -0.421875 L 5.921875 1.5625 L 0.296875 0.078125 Z M 0.390625 -0.25 "/></g></g></g></g></g><g transform="matrix(1, 0, 0, 1, 167, 247)"><g clip-path="url(#cd8faaa250)"><g fill="#004aad" fill-opacity="1"><g transform="translate(1.168449, 9.050224)"><g><path d="M 1.453125 -0.140625 C 1.285156 -0.0351562 1.175781 0.113281 1.125 0.3125 L 0.75 0.203125 L 1.21875 -1.53125 L 1.65625 -1.40625 C 1.65625 -0.957031 1.789062 -0.546875 2.0625 -0.171875 C 2.34375 0.203125 2.734375 0.453125 3.234375 0.578125 C 3.859375 0.753906 4.320312 0.695312 4.625 0.40625 C 4.726562 0.300781 4.796875 0.179688 4.828125 0.046875 C 4.910156 -0.265625 4.875 -0.5625 4.71875 -0.84375 C 4.5625 -1.125 4.242188 -1.429688 3.765625 -1.765625 C 3.285156 -2.109375 2.929688 -2.394531 2.703125 -2.625 C 2.472656 -2.863281 2.304688 -3.097656 2.203125 -3.328125 C 2.003906 -3.710938 1.972656 -4.160156 2.109375 -4.671875 C 2.253906 -5.179688 2.585938 -5.535156 3.109375 -5.734375 C 3.640625 -5.929688 4.21875 -5.945312 4.84375 -5.78125 C 5.195312 -5.6875 5.488281 -5.5625 5.71875 -5.40625 C 5.945312 -5.257812 6.113281 -5.117188 6.21875 -4.984375 C 6.3125 -5.054688 6.375 -5.15625 6.40625 -5.28125 L 6.796875 -5.171875 L 6.359375 -3.578125 L 5.953125 -3.6875 C 6.035156 -4.113281 5.953125 -4.484375 5.703125 -4.796875 C 5.460938 -5.117188 5.132812 -5.332031 4.71875 -5.4375 C 4.3125 -5.550781 3.957031 -5.554688 3.65625 -5.453125 C 3.363281 -5.359375 3.175781 -5.164062 3.09375 -4.875 C 3.019531 -4.59375 3.070312 -4.3125 3.25 -4.03125 C 3.4375 -3.75 3.851562 -3.34375 4.5 -2.8125 C 5.125 -2.34375 5.53125 -1.925781 5.71875 -1.5625 C 5.914062 -1.207031 5.957031 -0.820312 5.84375 -0.40625 C 5.675781 0.195312 5.335938 0.613281 4.828125 0.84375 C 4.316406 1.082031 3.757812 1.117188 3.15625 0.953125 C 2.5625 0.796875 2.078125 0.535156 1.703125 0.171875 C 1.597656 0.0664062 1.515625 -0.0351562 1.453125 -0.140625 Z M 1.453125 -0.140625 "/></g></g></g><g fill="#004aad" fill-opacity="1"><g transform="translate(8.427136, 10.962054)"><g><path d="M 0.296875 -0.3125 L 0.96875 -0.21875 L 1.78125 -6.234375 L 1.109375 -6.328125 L 1.15625 -6.671875 L 3.75 -6.3125 L 3.703125 -5.96875 L 2.96875 -6.078125 L 2.59375 -3.25 L 5.84375 -2.8125 L 6.234375 -5.625 L 5.484375 -5.734375 L 5.53125 -6.078125 L 8.140625 -5.71875 L 8.09375 -5.375 L 7.40625 -5.46875 L 6.59375 0.546875 L 7.28125 0.640625 L 7.234375 0.984375 L 4.625 0.625 L 4.671875 0.28125 L 5.40625 0.375 L 5.796875 -2.46875 L 2.546875 -2.90625 L 2.15625 -0.0625 L 2.875 0.046875 L 2.828125 0.390625 L 0.25 0.03125 Z M 0.296875 -0.3125 "/></g></g></g><g fill="#004aad" fill-opacity="1"><g transform="translate(17.385666, 12.050187)"><g><path d="M 3.328125 -6.765625 C 5.023438 -6.765625 5.875 -6.191406 5.875 -5.046875 C 5.875 -4.535156 5.71875 -4.125 5.40625 -3.8125 C 5.09375 -3.507812 4.675781 -3.316406 4.15625 -3.234375 C 4.84375 -3.117188 5.316406 -2.765625 5.578125 -2.171875 C 5.679688 -1.921875 5.769531 -1.648438 5.84375 -1.359375 C 5.925781 -1.078125 6 -0.875 6.0625 -0.75 C 6.195312 -0.476562 6.394531 -0.34375 6.65625 -0.34375 L 6.828125 -0.34375 L 6.84375 0.015625 L 6.21875 0.015625 C 5.644531 0.015625 5.253906 -0.0625 5.046875 -0.21875 C 4.847656 -0.375 4.695312 -0.6875 4.59375 -1.15625 C 4.488281 -1.582031 4.40625 -1.875 4.34375 -2.03125 C 4.21875 -2.363281 4.050781 -2.625 3.84375 -2.8125 C 3.632812 -3.007812 3.367188 -3.109375 3.046875 -3.109375 L 2.234375 -3.109375 L 2.234375 -0.34375 L 3.265625 -0.34375 L 3.265625 0 L 0.328125 0 L 0.328125 -0.34375 L 1.046875 -0.34375 L 1.046875 -6.421875 L 0.328125 -6.421875 L 0.328125 -6.765625 Z M 3.25 -3.40625 C 3.789062 -3.40625 4.171875 -3.578125 4.390625 -3.921875 C 4.546875 -4.171875 4.625 -4.523438 4.625 -4.984375 C 4.625 -5.453125 4.53125 -5.789062 4.34375 -6 C 4.113281 -6.28125 3.722656 -6.421875 3.171875 -6.421875 L 2.234375 -6.421875 L 2.234375 -3.40625 Z M 3.25 -3.40625 "/></g></g></g><g fill="#004aad" fill-opacity="1"><g transform="translate(25.630342, 11.954416)"><g><path d="M 0.265625 -0.390625 L 1.140625 -0.5 L 0.359375 -6.53125 L -0.515625 -6.421875 L -0.5625 -6.75 L 5.109375 -7.484375 L 5.359375 -5.5625 L 5.015625 -5.515625 C 4.960938 -5.765625 4.910156 -5.976562 4.859375 -6.15625 C 4.816406 -6.34375 4.742188 -6.5 4.640625 -6.625 C 4.429688 -6.875 4.066406 -6.976562 3.546875 -6.9375 L 1.546875 -6.6875 L 1.90625 -3.921875 L 3 -4.0625 C 3.25 -4.09375 3.429688 -4.15625 3.546875 -4.25 C 3.671875 -4.351562 3.738281 -4.503906 3.75 -4.703125 C 3.75 -4.773438 3.742188 -4.84375 3.734375 -4.90625 C 3.734375 -4.96875 3.726562 -5.035156 3.71875 -5.109375 L 4.078125 -5.15625 L 4.375 -2.890625 L 4.015625 -2.84375 C 4.003906 -2.90625 3.988281 -2.976562 3.96875 -3.0625 C 3.957031 -3.15625 3.941406 -3.226562 3.921875 -3.28125 C 3.867188 -3.46875 3.769531 -3.59375 3.625 -3.65625 C 3.476562 -3.726562 3.285156 -3.75 3.046875 -3.71875 L 1.953125 -3.578125 L 2.328125 -0.65625 L 4.203125 -0.890625 C 4.960938 -0.992188 5.378906 -1.410156 5.453125 -2.140625 C 5.484375 -2.347656 5.488281 -2.5625 5.46875 -2.78125 L 5.8125 -2.8125 L 6.078125 -0.78125 L 0.3125 -0.046875 Z M 0.265625 -0.390625 "/></g></g></g><g fill="#004aad" fill-opacity="1"><g transform="translate(33.798765, 10.800923)"><g><path d="M 0.203125 -0.40625 L 1.0625 -0.640625 L -0.484375 -6.515625 L -1.34375 -6.28125 L -1.421875 -6.625 L 4.109375 -8.078125 L 4.59375 -6.203125 L 4.265625 -6.125 C 4.179688 -6.351562 4.101562 -6.554688 4.03125 -6.734375 C 3.957031 -6.910156 3.863281 -7.050781 3.75 -7.15625 C 3.507812 -7.382812 3.132812 -7.441406 2.625 -7.328125 L 0.671875 -6.8125 L 1.390625 -4.125 L 2.46875 -4.40625 C 2.707031 -4.46875 2.878906 -4.554688 2.984375 -4.671875 C 3.085938 -4.796875 3.128906 -4.953125 3.109375 -5.140625 C 3.097656 -5.210938 3.085938 -5.28125 3.078125 -5.34375 C 3.066406 -5.40625 3.050781 -5.46875 3.03125 -5.53125 L 3.390625 -5.625 L 3.984375 -3.421875 L 3.625 -3.328125 C 3.601562 -3.390625 3.578125 -3.460938 3.546875 -3.546875 C 3.523438 -3.628906 3.5 -3.695312 3.46875 -3.75 C 3.382812 -3.945312 3.265625 -4.066406 3.109375 -4.109375 C 2.960938 -4.148438 2.773438 -4.140625 2.546875 -4.078125 L 1.46875 -3.796875 L 2.21875 -0.9375 L 4.046875 -1.421875 C 4.796875 -1.617188 5.160156 -2.085938 5.140625 -2.828125 C 5.140625 -3.035156 5.117188 -3.242188 5.078125 -3.453125 L 5.40625 -3.546875 L 5.921875 -1.5625 L 0.296875 -0.078125 Z M 0.203125 -0.40625 "/></g></g></g></g></g><g fill="#004aad" fill-opacity="1"><g transform="translate(122.097653, 199.176695)"><g><path d="M 5.109375 -1.9375 C 4.660156 -1.425781 4.4375 -0.78125 4.4375 0 L 2.953125 0 L 2.953125 -6.796875 L 4.671875 -6.796875 C 5.097656 -5.085938 6 -3.703125 7.375 -2.640625 C 8.75 -1.578125 10.40625 -1.046875 12.34375 -1.046875 C 14.78125 -1.046875 16.410156 -1.71875 17.234375 -3.0625 C 17.492188 -3.519531 17.625 -4.03125 17.625 -4.59375 C 17.625 -5.8125 17.195312 -6.851562 16.34375 -7.71875 C 15.488281 -8.582031 14.023438 -9.394531 11.953125 -10.15625 C 9.878906 -10.914062 8.3125 -11.613281 7.25 -12.25 C 6.195312 -12.882812 5.363281 -13.550781 4.75 -14.25 C 3.664062 -15.476562 3.125 -17.09375 3.125 -19.09375 C 3.125 -21.09375 3.984375 -22.710938 5.703125 -23.953125 C 7.421875 -25.203125 9.507812 -25.828125 11.96875 -25.828125 C 13.351562 -25.828125 14.53125 -25.664062 15.5 -25.34375 C 16.476562 -25.019531 17.222656 -24.640625 17.734375 -24.203125 C 17.992188 -24.597656 18.132812 -25.03125 18.15625 -25.5 L 19.71875 -25.5 L 19.71875 -19.296875 L 18.109375 -19.296875 C 17.941406 -20.941406 17.253906 -22.207031 16.046875 -23.09375 C 14.847656 -23.988281 13.457031 -24.4375 11.875 -24.4375 C 10.289062 -24.4375 9 -24.113281 8 -23.46875 C 7 -22.820312 6.5 -21.9375 6.5 -20.8125 C 6.5 -19.6875 6.960938 -18.703125 7.890625 -17.859375 C 8.828125 -17.015625 10.734375 -15.960938 13.609375 -14.703125 C 16.304688 -13.597656 18.1875 -12.484375 19.25 -11.359375 C 20.320312 -10.234375 20.859375 -8.84375 20.859375 -7.1875 C 20.859375 -4.851562 20.039062 -3.015625 18.40625 -1.671875 C 16.769531 -0.335938 14.785156 0.328125 12.453125 0.328125 C 10.128906 0.328125 8.101562 -0.132812 6.375 -1.0625 C 5.863281 -1.34375 5.441406 -1.632812 5.109375 -1.9375 Z M 5.109375 -1.9375 "/></g></g><g transform="translate(144.85876, 199.176695)"><g/></g><g transform="translate(156.22265, 199.176695)"><g><path d="M 1.765625 -1.296875 L 4.59375 -1.296875 L 4.609375 -24.1875 L 1.765625 -24.1875 L 1.765625 -25.5 L 14.328125 -25.5 C 16.941406 -25.5 18.882812 -24.898438 20.15625 -23.703125 C 21.425781 -22.503906 22.0625 -20.96875 22.0625 -19.09375 C 22.0625 -16.90625 21.050781 -15.289062 19.03125 -14.25 C 18.425781 -13.9375 17.789062 -13.691406 17.125 -13.515625 C 19.269531 -13.253906 20.910156 -12.5625 22.046875 -11.4375 C 23.179688 -10.320312 23.75 -8.945312 23.75 -7.3125 C 23.75 -5.070312 22.925781 -3.289062 21.28125 -1.96875 C 19.644531 -0.65625 17.304688 0 14.265625 0 L 1.765625 0 Z M 13.1875 -13.859375 C 15.59375 -13.859375 17.03125 -14.894531 17.5 -16.96875 C 17.644531 -17.582031 17.71875 -18.25 17.71875 -18.96875 C 17.71875 -20.65625 17.441406 -21.875 16.890625 -22.625 C 16.160156 -23.664062 14.773438 -24.1875 12.734375 -24.1875 L 9.09375 -24.1875 L 9.09375 -13.859375 Z M 12.96875 -1.296875 C 14.988281 -1.296875 16.535156 -1.78125 17.609375 -2.75 C 18.679688 -3.71875 19.21875 -5.085938 19.21875 -6.859375 C 19.21875 -9.472656 18.175781 -11.21875 16.09375 -12.09375 C 15.34375 -12.414062 14.421875 -12.578125 13.328125 -12.578125 L 9.09375 -12.578125 L 9.09375 -1.296875 Z M 12.96875 -1.296875 "/></g></g><g transform="translate(181.783074, 199.176695)"><g/></g><g transform="translate(193.146964, 199.176695)"><g><path d="M 1.03125 -1.296875 L 4.09375 -1.296875 L 4.09375 -24.1875 L 1 -24.1875 L 1 -25.5 L 9.703125 -25.5 L 17.21875 -6.953125 L 24.671875 -25.5 L 33.09375 -25.5 L 33.09375 -24.1875 L 29.84375 -24.1875 L 29.84375 -1.296875 L 33.390625 -1.296875 L 33.390625 0 L 22.3125 0 L 22.3125 -1.296875 L 25.34375 -1.296875 L 25.359375 -23.484375 L 16.09375 -0.34375 L 15.421875 -0.34375 L 5.609375 -23.59375 L 5.609375 -1.296875 L 8.625 -1.296875 L 8.625 0 L 1.03125 0 Z M 1.03125 -1.296875 "/></g></g><g transform="translate(227.288625, 199.176695)"><g/></g><g transform="translate(238.652516, 199.176695)"><g><path d="M 1.578125 -1.296875 L 4.859375 -1.296875 L 4.875 -24.1875 L 1.578125 -24.1875 L 1.578125 -25.5 L 12.640625 -25.5 L 12.640625 -24.1875 L 9.359375 -24.1875 L 9.359375 -1.296875 L 12.640625 -1.296875 L 12.640625 0 L 1.578125 0 Z M 1.578125 -1.296875 "/></g></g></g></svg>